<svg width="426" height="466" viewBox="0 0 426 466" fill="none" xmlns="http://www.w3.org/2000/svg">
<path d="M174.589 -119.42C174.589 -119.42 202.298 -69.0378 254.423 -36.8405C308.337 -3.54963 322.853 -3.65053 364.031 4.36994L209.17 232.19C209.17 232.19 170.067 255.571 90.6699 201.601C26.0161 157.652 24.2957 106.521 24.2957 106.521C24.2957 106.521 176.894 -122.837 174.569 -119.416L174.589 -119.42Z" fill="#333333"/>
<path d="M171.855 -88.59C171.855 -88.59 196.123 -45.307 241.279 -17.3504C287.985 11.5543 300.471 11.5807 336.008 18.7625L204.498 212.229C204.498 212.229 171.011 231.893 102.204 185.121C46.1697 147.032 44.2771 103.318 44.2771 103.318C44.2771 103.318 173.822 -91.4835 171.855 -88.59Z" fill="#B7D256"/>
<path d="M202.305 -122.659C202.305 -122.659 225.559 -81.771 269.519 -54.674C316.528 -25.6946 353.586 -24.0114 353.586 -24.0114L364.203 4.11783C364.203 4.11783 329.289 24.4415 249.418 -25.1291C182.726 -66.5193 174.79 -119.741 174.79 -119.741L202.293 -122.667L202.305 -122.659Z" fill="#333333"/>
<path d="M20.8197 224.043L59.7352 227.26L209.24 8.46793C209.24 8.46793 137.29 -34.1641 129.579 -115.477L92.0243 -118.739L-36.2014 69.8969C-36.2014 69.8969 -50.7875 141.413 20.8197 224.043Z" fill="#333333"/>
<path d="M-28.0174 71.2746C-28.0174 71.2746 -41.128 131.811 20.5194 205.598L145.329 21.9877C145.329 21.9877 100.203 -7.1061 84.5869 -94.3802L-28.0256 71.2868L-28.0174 71.2746Z" fill="#F9CD71"/>
<path d="M94.7323 274.285L77.4228 239.283L225.86 19.7655C225.86 19.7655 291.974 70.9829 370.42 48.235L387.271 81.9555L259.045 270.592C259.045 270.592 197.912 310.467 94.7323 274.285Z" fill="#333333"/>
<path d="M254.789 263.515C254.789 263.515 203.323 297.979 112.03 267.804L236.84 84.1939C236.84 84.1939 280.496 115.45 367.394 97.8597L254.781 263.527L254.789 263.515Z" fill="#EDA1A6"/>
<path d="M66.4877 8.27727C66.4877 8.27727 96.9182 63.7598 154.271 99.1755C213.577 135.795 229.56 135.667 274.902 144.434L104.065 395.756C104.065 395.756 60.9658 421.58 -26.3594 362.22C-97.4724 313.881 -99.2896 257.525 -99.2896 257.525C-99.2896 257.525 69.0513 4.50598 66.4877 8.27727Z" fill="#333333"/>
<path d="M64.449 42.5837C64.449 42.5837 90.6139 90.1673 139.852 120.576C190.779 152.026 204.483 151.928 243.386 159.492L97.131 374.652C97.131 374.652 60.1878 396.731 -14.7887 345.766C-75.8473 304.261 -77.4647 255.97 -77.4647 255.97C-77.4647 255.97 66.6455 39.3523 64.449 42.5837Z" fill="#87BFFF"/>
<path d="M97.3703 4.14214C97.3703 4.14214 122.584 49.6447 170.984 79.389C222.734 111.199 263.841 112.568 263.841 112.568L275.235 143.943C275.235 143.943 236.199 167.222 148.277 112.793C74.8474 67.3459 66.8128 7.79866 66.8128 7.79866L97.3785 4.13002L97.3703 4.14214Z" fill="#333333"/>
<path d="M109.603 356.253C111.668 344.997 108.755 336.244 105.064 327.883C111.605 335.265 115.032 344.844 115.552 356.496C116.4 353.589 116.283 350.963 115.725 348.568C114.568 343.609 113.211 338.761 111.94 333.866C111.816 333.374 111.663 332.899 111.653 332.344C115.634 337.349 116.933 344.226 118.26 351.087C118.591 339.713 114.026 331.73 108.891 324.119C111.236 325.802 113.098 328.04 114.486 330.716C115.902 333.429 117.211 336.246 118.268 339.228C119.313 342.201 120.007 345.432 120.966 348.506C120.971 347.979 121.014 347.424 120.962 346.93C120.36 341.516 120.726 335.665 119.233 330.654C117.435 324.693 114.105 320.078 110.78 315.431C109.683 313.907 109.028 311.941 108.046 310.301C105.557 306.134 101.639 303.966 97.1085 302.725C98.1322 301.582 98.9086 301.243 100.232 301.577C101.225 301.828 102.11 302.288 103.291 302.755C101.416 298.333 97.819 297.532 93.2829 298.321C94.3576 296.558 95.6226 297.082 96.713 296.515C95.4741 294.294 93.4558 293.841 90.7451 295.341C88.6328 296.504 86.5357 297.748 84.4782 299.09C83.374 299.807 82.6245 299.899 81.8017 299.269C81.0632 298.696 80.3852 297.387 78.9088 299.248C78.7735 299.421 78.3018 299.259 77.978 299.269C72.8141 299.348 67.642 299.44 62.4661 299.511C62.2031 299.509 61.8711 299.53 61.727 299.379C59.4231 296.859 56.086 296.376 52.6639 296.278C47.923 296.149 43.0812 296.377 38.2735 296.451C38.0954 296.453 37.9338 296.432 37.4122 296.396C39.6157 294.269 41.5666 292.306 43.5892 290.445C52.7586 281.985 62.4242 274.816 72.7831 269.428C79.1545 266.12 85.1465 265.03 90.8157 266.515C93.3578 267.182 94.0729 269.577 94.5469 272.198C94.6197 272.584 94.6437 272.989 94.7044 273.366C94.7077 273.439 94.8168 273.46 95.1816 273.779C95.2346 271.446 95.292 269.469 95.3439 267.241C97.1841 267.696 98.6551 268.643 99.7237 270.13C100.777 271.588 101.763 273.143 102.583 274.814C103.411 276.526 103.994 278.443 104.808 280.199C105.4 275.933 103.866 272.875 102.138 269.508C108.692 271.841 112.551 276.586 114.434 283.666C115.362 280.901 114.561 278.942 109.898 271.883C112.629 273.049 115.108 274.664 117.067 276.915C119.038 279.174 120.706 281.775 122.7 284.493C121.031 279.327 118.181 275.692 115.031 272.03C117.832 272.731 122.006 275.534 123.927 278.307C126.007 281.312 127.863 284.519 129.761 287.559C128.147 280.238 124.065 275.148 118.934 271.006C127.685 273.064 134.075 278.309 138.06 286.782C135.616 278.013 129.103 274.01 122.546 270.048C132.145 272.594 137.478 280.198 141.408 289.607C141.721 286.035 137.979 278.01 134.16 274.477C130.265 270.875 126.198 267.474 122.686 264.397C130.707 267.321 136.588 274.041 141.727 281.725C141.886 281.568 142.025 281.415 142.185 281.258C139.997 278.074 138.038 274.656 135.584 271.785C133.127 268.895 130.185 266.559 127.525 264.044C132.769 265.221 136.94 268.339 140.848 272.181C138.526 267.95 133.526 262.553 116.533 259.348C120.256 256.981 124.558 257.341 125.938 260.313C126.291 259.457 126.582 258.77 126.918 257.938C131.635 258.102 136.255 258.538 139.941 261.203C137.831 257.982 134.564 256.593 130.918 255.812C130.842 255.795 130.736 255.795 130.643 255.802C127.18 255.764 124.098 254.907 121.487 253.044C121.451 253.019 121.415 252.995 121.379 252.97C118.762 252.465 116.362 251.77 114.732 249.424C113.421 247.543 110.78 248.524 108.475 249.167C107.298 249.499 106.124 249.956 104.922 250.377C105.194 248.369 108.365 248.137 107.492 245.741C105.285 245.177 103.012 245.825 100.785 248.272C99.6712 249.495 98.9613 248.517 98.1538 248.357C97.8711 248.307 97.7205 247.621 97.7458 247.143C97.8744 244.932 97.6069 243.07 95.8696 242.437C95.5204 243.703 95.312 245.047 94.7244 246.274C94.3604 247.017 93.4338 247.784 92.71 248.123C92.344 248.298 91.7644 247.621 91.4659 247.153C90.1398 245.138 88.8834 243.046 87.6023 240.991C87.4757 241.099 87.3409 241.22 87.2143 241.328C87.6824 242.972 88.1385 244.608 88.6614 246.432C87.7388 246.441 87.0659 246.549 86.4967 246.428C86.0162 246.331 85.5007 246.104 85.246 245.701C84.1922 243.959 83.2403 242.145 82.2479 240.339L81.7542 240.728C82.1342 241.906 82.5224 243.072 82.9413 244.4C82.5479 244.486 82.2427 244.65 82.0613 244.58C80.5591 243.912 78.8849 243.446 77.6331 242.436C75.4666 240.698 72.8149 240.063 70.04 239.608C69.4017 239.511 68.7634 239.413 67.9109 239.293C69.4788 237.194 70.815 235.202 72.3313 233.386C76.089 228.921 79.827 224.407 83.7809 220.146C92.8875 210.352 103.037 203.689 114.142 200.133C116.241 199.456 118.347 198.82 120.507 198.131C120.574 199.095 120.634 199.914 120.708 200.972C121.053 200.464 121.242 200.186 121.431 199.908C121.875 199.308 122.505 198.198 122.732 198.228C123.681 198.361 124.853 198.503 125.307 199.236C126.023 200.359 126.212 201.973 126.665 203.536C126.84 202.294 126.993 201.213 127.155 200.068C128.353 200.517 129.433 202.783 130.393 206.866C130.482 205.283 130.564 203.711 130.654 202.075C132.448 202.676 132.659 203.066 135.708 210.426C135.646 209.429 135.653 208.408 135.534 207.443C135.414 206.478 135.169 205.568 135.046 204.583C137.453 207.315 138.347 211.159 139.188 215.054C139.821 210.287 137.865 206.994 136.54 203.318C140.474 206.292 142.216 211.119 143.471 216.375L143.845 216.187C143.681 214.873 143.614 213.519 143.328 212.282C143.05 211.032 142.609 209.866 142.132 208.728C141.654 207.59 141.066 206.536 140.63 205.338C144.62 207.997 147.227 212.015 148.772 217.078C148.831 213.052 145.824 208.532 140.113 203.713C143.312 204.243 145.864 205.907 147.932 208.179C150 210.451 151.678 213.166 153.533 215.7C152.402 211.324 149.582 208.576 146.886 205.7C151.306 207.025 153.334 211.197 155.783 214.93C155.63 212.952 154.218 210.26 151.717 207.587C149.877 205.629 147.885 203.815 145.822 201.794C149.99 202.222 152.578 204.583 154.37 208.117C154.541 207.969 154.713 207.82 154.864 207.675C154.652 207.054 154.502 206.368 154.208 205.815C152.328 202.203 149.535 199.703 146.192 197.802C144.157 196.649 142.328 195.193 140.407 193.87C140.275 193.78 140.143 193.637 140.092 193.479C138.999 189.695 135.837 189.862 132.469 190.436C132.092 190.498 131.71 190.593 131.325 190.667C131.244 190.682 131.16 190.625 130.744 190.484C131.967 189.671 132.912 189.058 134.033 188.317C131.29 187.478 128.608 188.961 125.857 190.805C126.34 188.799 127.872 186.622 126.225 185.131L123.019 189.848C122.241 188.011 121.519 186.3 120.796 184.589C120.585 184.692 120.373 184.796 120.174 184.908C120.253 185.439 120.341 185.959 120.4 186.494C120.459 187.029 120.603 187.569 120.524 188.152C120.29 189.973 120.27 191.869 119.596 193.639C118.922 195.408 117.943 197.236 115.677 197.694C107.563 199.339 99.8481 203.767 92.4652 209.729C85.4989 215.337 79.1821 221.882 73.3402 229.05C72.6596 229.896 71.9308 230.709 71.0655 231.412C71.4108 230.904 71.756 230.396 72.1013 229.888C85.433 210.094 98.7768 190.308 112.108 170.514C113.72 168.144 115.339 165.761 116.854 163.325C117.805 161.797 118.975 160.93 120.385 160.438C125.616 158.601 130.633 158.246 135.671 157.833C136.23 157.789 136.776 157.736 137.335 157.692C137.369 157.538 137.415 157.392 137.457 157.227C134.884 157.228 132.311 157.229 129.401 157.232C133.26 155.47 136.71 154.827 140.221 154.172L132.469 154.508C135.972 152.698 139.225 152.734 142.52 152.552C139.112 151.579 135.353 151.871 131.473 152.239C132.966 151.521 134.467 150.738 135.963 150.093C137.585 149.392 139.218 148.752 140.851 148.164C142.435 147.597 144.01 147.146 145.603 146.514C140.899 146.358 136.041 148.449 130.79 150.29C135.235 145.513 139.859 142.132 144.539 138.825C144.504 138.695 144.477 138.553 144.442 138.423C142.778 139.342 141.086 140.172 139.452 141.201C137.798 142.235 136.183 143.418 134.589 144.597C132.949 145.817 131.345 147.113 129.637 148.304C133.652 142.086 138.046 136.09 140.804 129.284C140.708 129.218 140.599 129.145 140.503 129.079L130.499 143.797C130.37 143.727 130.241 143.657 130.112 143.587C132.678 138.542 135.245 133.497 137.823 128.46L137.449 128.258L128.061 142.069C130.188 136.089 133.341 130.205 131.726 124.545C131.054 130.33 128.964 135.893 125.56 141.289C127.413 135.971 128.462 130.902 126.31 126.681C126.833 131.174 127.384 135.651 124.122 140.683C124.905 137.042 126.021 133.327 125.028 130.07C124.856 131.775 124.664 133.483 124.492 135.188C124.415 135.223 124.337 135.259 124.26 135.295C123.866 134.267 123.465 133.251 123.059 132.215C122.76 133.692 124.21 134.643 122.637 136.491C123.635 136.992 123.283 138.132 122.89 139.333C120.457 146.749 118.056 154.17 115.622 161.586C115.501 161.946 115.331 162.325 115.109 162.652C100.179 184.33 85.2497 206.009 70.1825 227.682C76.5066 213.946 81.9848 200.235 80.6281 186.6C80.7509 186.471 80.8736 186.343 81.0084 186.222C81.491 186.497 81.9616 186.764 82.4886 187.051C84.0165 185.296 84.898 185.347 86.1293 187.528C86.4403 185.671 86.3247 185.504 82.5443 182.563C83.1252 181.578 83.7068 180.542 84.3447 179.525C84.822 178.771 85.4123 178.058 84.8004 177.377C84.1924 176.716 83.6257 177.498 83.058 177.996C82.6333 178.362 82.2086 178.728 81.596 179.266C81.5309 175.862 80.6323 173.218 78.3019 171.669C78.5629 172.996 78.8164 174.282 79.078 175.556C79.009 175.58 78.9399 175.604 78.8709 175.628C77.5382 173.855 76.2834 171.995 74.84 170.359C73.4804 168.834 71.6999 168.083 69.3966 168.18C68.0931 168.231 66.9685 167.449 65.8043 166.958C62.0417 165.39 58.1338 164.166 53.5863 164.505C54.0092 164.687 54.4239 164.88 54.9395 165.107C52.5642 165.879 50.4354 164.397 48.2286 166.84C50.4125 166.556 52.6578 166.208 54.8692 166.014C55.914 165.928 56.8952 166.118 57.8425 166.461C55.4547 166.889 53.0466 167.321 50.6588 167.749C50.6501 167.814 50.6495 167.866 50.6407 167.931C54.0327 167.815 57.445 167.694 60.837 167.577C60.8113 167.719 60.7855 167.861 60.7597 168.002C57.8437 168.637 54.9542 168.299 51.9448 170.497C57.4948 167.958 62.0262 169.146 66.5066 170.565C63.9643 170.676 61.4434 171.066 58.8429 172.481C65.6238 171.397 68.3281 171.644 70.4343 173.73C68.2454 174.098 66.1985 174.44 64.1394 174.773C64.1054 174.927 64.0753 175.101 64.0413 175.254C67.5396 175.033 71.2122 174.4 73.7134 176.631C71.8926 177.78 70.1205 178.909 68.3364 180.031C68.3752 180.181 68.4141 180.331 68.4447 180.493C70.2666 180.016 72.0966 179.528 73.9305 179.059C75.6022 178.622 76.8118 179.02 77.3561 180.734C76.7719 181.645 76.1751 182.601 75.4303 183.774C76.6314 183.07 77.5843 182.498 78.6347 181.885C79.9721 187.41 79.8467 193.141 78.7059 199.226C77.0924 207.925 73.6807 216.392 69.8565 224.843C63.7658 238.314 54.9841 250.274 46.8823 262.607C42.675 269.03 38.2748 275.322 33.7863 281.925C33.0776 280.453 32.416 279.119 31.8196 277.741C31.7211 277.498 31.8636 277.029 31.9848 276.669C35.5065 265.448 39.0283 254.227 42.5583 242.994C42.6252 242.792 42.7687 242.607 42.9217 242.304L44.392 243.304L44.706 243.075C44.4021 242.356 44.0861 241.628 43.7986 240.885C43.6135 240.405 43.287 239.9 43.3534 239.362C44.476 231.178 45.639 222.986 46.8454 214.524C54.6459 210.773 61.5673 211.323 67.538 215.293C67.6284 215.16 67.7511 215.031 67.8536 214.906C67.1366 214.224 66.3828 213.571 65.7151 212.816C65.4434 212.49 65.409 211.919 65.2398 211.468C64.8811 210.569 64.5755 209.619 64.1023 208.838C63.852 208.402 63.3535 208.099 62.8609 207.994C61.1215 207.572 60.2543 206.54 60.303 204.239C60.3505 202.433 59.1097 201.536 57.4216 201.609C56.2842 201.649 55.1089 201.823 53.829 201.943C54.6753 200.361 55.3314 198.774 54.3619 197.478C53.6197 196.496 52.2062 196.243 50.9333 196.845C50.3364 195.131 49.7675 193.453 49.1536 191.816C48.5397 190.179 47.1641 189.792 45.4732 190.128C44.5527 190.315 44.0252 190.08 43.7021 189.26C42.6304 186.533 40.6489 184.886 38.1716 183.838C37.9097 183.731 37.7344 183.47 37.5181 183.27C35.9037 181.731 34.3223 180.143 32.6751 178.652C31.3045 177.402 29.8561 176.241 28.4362 175.063C23.4747 170.93 18.0315 167.584 11.2768 166.582C9.12748 166.27 6.7907 166.468 4.47802 166.681C6.76478 167.387 9.71643 166.441 11.443 168.463C9.17748 168.426 6.91196 168.389 4.6585 168.36C4.61684 168.473 4.59546 168.582 4.5538 168.695C6.69544 168.967 8.83709 169.238 10.9749 169.489C10.9415 169.59 10.908 169.691 10.8664 169.804C9.33499 169.983 7.79154 170.154 6.26016 170.333C8.84669 170.623 11.7424 169.993 13.966 171.699C13.0871 172.162 12.3588 172.533 11.3457 173.065C14.2325 173.277 17.4992 171.996 19.1747 174.638C16.1187 174.364 13.0626 174.09 10.0065 173.817C9.93963 174.019 9.85248 174.225 9.7856 174.427C15.144 174.321 19.6095 175.995 23.4326 179.106C21.3547 180.841 19.9485 179.514 18.2068 179.691C18.6741 179.885 19.1534 180.087 19.7659 180.327C19.1982 180.825 18.7653 181.203 18.0508 181.813C18.6392 181.647 18.9718 181.573 19.3006 181.478C21.5689 180.863 23.5479 180.829 25.1716 182.251C26.735 183.632 28.5856 184.642 30.3211 185.822C28.4183 188.206 27.3546 186.634 25.8228 186.477L27.3654 187.526C27.1347 187.917 26.9078 188.329 26.6442 188.768C30.9617 187.99 33.5435 189.869 34.8802 193.942C33.3899 193.672 32.0329 193.439 30.672 193.186C30.5689 193.364 30.4659 193.541 30.3629 193.719C34.9727 194.377 38.2749 196.621 39.0453 202.202C38.1194 202.138 37.2175 202.091 36.1946 202.015C37.3045 202.663 38.2479 203.375 39.3315 203.829C41.2851 204.662 41.9811 206.567 42.4431 208.791C43.8357 215.607 43.3604 223.047 42.3897 230.644C42.0726 233.081 41.6946 235.529 41.3056 238.253C40.0944 237.624 39.094 236.944 37.9408 236.567C36.2594 236.007 34.4706 235.658 32.7273 235.215C31.4563 234.882 30.1524 234.597 28.9477 234.114C28.6737 233.998 28.5846 233.248 28.6789 232.746C29.8509 226.382 28.2586 221.622 25.2251 217.686C25.1013 217.531 24.9118 217.473 24.6828 217.317C25.1071 218.896 25.5084 220.354 25.9015 221.823C25.7382 221.96 25.5667 222.108 25.4034 222.245C24.0878 217.337 21.0607 214.324 16.964 212.212C19.0455 214.723 21.412 216.685 22.2129 220.147C18.6595 216.405 14.4966 213.664 9.4168 212.297C12.0403 214.063 15.2014 215.116 16.8588 217.94C13.856 216.836 10.7442 215.711 7.66532 214.537C7.37112 214.426 7.18055 214.084 7.01788 213.779C5.94443 211.599 4.09047 210.905 1.55528 211.498C0.589861 211.726 -0.0199192 211.612 -0.626833 210.845C-1.68511 209.525 -3.28154 208.97 -5.15149 209.025C-5.71418 209.049 -6.26642 208.851 -6.73317 208.604C-8.44679 207.652 -10.0492 206.509 -11.8285 205.653C-14.256 204.481 -16.6665 203.231 -19.3176 202.543C-22.6343 201.668 -26.1501 201.24 -29.6291 200.785C-35.9324 199.948 -42.2066 199.043 -48.9332 199.581C-49.812 199.655 -50.6979 199.636 -51.5899 199.808C-52.0359 199.894 -52.5138 200.312 -53.3198 200.772C-49.5147 200.618 -46.155 200.497 -42.8074 200.367C-42.8458 200.554 -42.8721 200.748 -42.9105 200.934C-44.5834 202.254 -46.1095 203.463 -48.1054 203.184C-51.1922 202.748 -54.5541 203.469 -57.9793 204.801C-49.7076 203.934 -41.7172 204.026 -34.2509 205.848C-41.3839 205.791 -48.3956 204.985 -56.1358 208.388C-45.6142 205.974 -35.6337 205.368 -27.168 209.867C-30.7074 209.759 -34.2259 209.596 -37.7822 209.565C-41.3912 209.534 -45.0851 209.888 -48.9409 211.387C-39.1498 209.944 -29.8938 210.118 -21.3606 213.584C-24.763 213.924 -27.8241 214.124 -30.9159 214.551C-34.016 214.99 -37.1463 215.992 -40.2198 218.128C-32.3834 215.569 -24.7937 214.151 -18.098 216.898C-21.6055 216.848 -25.1117 217.807 -28.6307 220.365C-25.0275 219.031 -21.4803 218.012 -17.9147 218.314C-19.6249 219.326 -21.1761 220.234 -22.7153 221.151C-22.7005 221.285 -22.6858 221.418 -22.671 221.552C-17.8717 219.598 -12.9319 216.998 -9.60701 220.92C-14.2775 222.554 -19.0088 224.201 -23.7363 225.867C-23.7468 226.09 -23.7452 226.321 -23.7557 226.544C-18.586 224.771 -13.4229 223.241 -8.45963 223.379C-13.2716 225.378 -18.1338 226.776 -22.8123 229.926C-19.6239 228.786 -16.418 227.518 -13.2274 226.557C-10.6538 225.778 -8.08417 225.367 -5.52104 224.811C-3.51349 224.372 -1.91152 224.789 -0.958527 226.498C-6.05651 228.761 -11.183 231.041 -16.3215 233.312C-16.3073 233.499 -16.3013 233.697 -16.2871 233.884C-9.28072 230.99 -2.34349 228.898 4.74015 229.028C1.79265 231.109 -0.82386 232.884 -3.39328 234.798C-5.90571 236.679 -8.34693 238.715 -10.7049 240.914C-7.7745 239.299 -4.85064 237.538 -1.88574 236.105C0.758072 234.808 3.45608 233.742 6.14093 232.774C8.10689 232.059 8.1014 232.197 8.83795 234.094C4.63947 237.005 0.607477 240.24 -2.60073 244.778C1.41872 241.198 5.64896 238.345 10.1409 236.377C11.0833 239.086 11.0674 239.058 8.96359 241.712C7.70041 243.311 6.51336 244.98 5.38985 246.762C7.54671 244.833 9.71562 242.913 11.9459 240.928C12.2738 242.442 12.668 243.806 12.8387 245.266C12.906 245.789 12.5497 246.572 12.2318 247.169C11.8191 247.932 11.2695 248.637 10.8677 249.513C11.5702 248.894 12.2809 248.264 13.1429 247.488C14.5829 252.498 14.6985 258.005 15.0388 263.7C14.1419 263.568 13.4067 263.457 12.6715 263.346C14.0843 264.041 15.832 264.451 14.5335 267.476C11.2404 265.892 8.02741 264.009 3.97032 263.885C7.73452 265.684 11.8034 266.982 14.6288 270.317C8.80176 268.832 3.16488 266.963 -3.42429 268.283C-0.654824 268.875 2.34811 269.201 5.03259 270.177C7.94277 271.236 10.5838 272.872 13.2874 274.339C13.6374 274.523 13.6954 275.164 13.7539 275.752C6.71209 274.731 -0.0184036 272.968 -7.98251 275.741C-0.0166205 275.091 7.05253 276.589 13.0533 280.775C12.5673 280.816 12.0523 280.925 11.5953 280.898C7.33393 280.582 3.00403 280.238 -1.56513 281.853C-4.79406 283 -7.34994 282.872 -9.71931 281.562C-10.0612 281.365 -10.551 281.386 -11.0457 281.491C-9.81859 282.149 -8.60348 282.798 -7.02627 283.64C-8.68869 284.349 -9.76113 285.512 -11.2151 284.877C-13.4021 283.921 -15.8697 283.481 -18.276 282.977C-15.5379 284.237 -12.7998 285.497 -10.0616 286.757C-10.1027 286.818 -10.1438 286.878 -10.197 286.931L-25.1655 285.155C-25.2324 285.357 -25.3075 285.571 -25.3865 285.765C-23.1035 286.061 -20.7952 286.269 -18.5742 286.682C-16.3652 287.087 -14.2312 287.707 -12.127 288.448C-20.6717 287.59 -29.4014 288.923 -38.5193 294.042C-30.4276 291.444 -22.4757 289.83 -14.8723 290.542C-22.9873 291.904 -31.1309 293.671 -38.8442 297.216C-31.665 295.96 -24.0398 294.619 -16.4025 293.286C-16.4168 293.488 -16.4228 293.679 -16.4371 293.881C-24.4707 296.342 -32.4294 299.366 -40.079 304.917C-32.6714 301.2 -25.2585 298.512 -17.7773 297.019C-25.877 301.132 -34.0303 304.961 -41.8804 310.34C-37.4163 308.336 -32.9556 306.258 -28.4724 304.354C-23.9322 302.419 -19.3696 300.658 -14.7692 299.153C-22.2588 304.494 -29.7484 309.835 -37.2379 315.176C-37.1947 315.294 -37.1596 315.424 -37.1164 315.541C-28.5718 311.059 -20.0474 306.58 -11.5027 302.098C-19.0265 308.76 -26.6768 315.141 -33.5515 322.792C-24.9073 316.167 -16.3305 309.408 -7.10417 304.363C-14.1635 311.871 -21.2343 319.318 -27.2566 327.477C-19.398 320.53 -11.3597 313.423 -3.3011 306.312L-3.06556 306.613C-7.86775 314.948 -13.8894 322.666 -17.8271 331.518C-13.7844 323.834 -7.11493 320.658 -1.18483 316.237C-1.04787 316.295 -0.910916 316.353 -0.786002 316.402C-1.94541 319.663 -3.02811 322.941 -4.27626 326.177C-6.931 333.089 -10.1709 339.852 -14.0791 346.301C-14.4249 346.862 -14.7707 347.422 -15.1166 347.983C-12.4788 349.935 -9.85373 351.932 -7.2489 353.932C-5.29628 351.422 -3.28783 348.986 -1.22731 346.603C3.86864 340.713 9.2045 335.093 14.3804 329.293C15.3877 328.174 16.2654 327.816 17.3595 328.047C17.8487 325.409 20.1368 324.843 21.4948 323.078C21.9971 323.791 22.4035 324.386 22.8061 324.96C22.9365 324.872 23.079 324.792 23.2094 324.703C23.1531 323.905 23.0766 323.11 23.0061 322.125C24.2155 321.02 25.535 319.831 26.8425 318.633L27.0474 318.772C22.4406 328.53 17.8255 338.301 13.0821 348.338C15.6757 346.052 22.0055 337.129 24.3392 333.021C27.4479 327.567 30.7499 322.191 34.1331 316.799C32.1678 328.141 28.1195 339.41 24.217 350.673C24.3134 350.739 24.4301 350.8 24.5347 350.854C25.9322 348.798 27.4464 346.803 28.6949 344.682C34.0797 335.593 37.5151 326.029 40.5588 316.393C40.6257 316.191 40.7128 315.985 40.8132 315.682C41.3661 318.109 40.3002 328.205 38.933 335.038C37.6217 341.555 36.1768 348.088 35.1028 354.748C36.5794 351.721 38.2296 348.723 39.4964 345.641C40.7922 342.49 41.8743 339.265 42.7417 336.071C43.6047 332.909 44.1926 329.737 44.6995 326.581C45.2189 323.38 45.4913 320.205 45.9429 316.534C46.3504 317.412 46.6521 317.953 46.8767 318.53C48.5502 322.886 49.044 327.836 48.9849 333.03C48.907 339.236 48.6303 345.502 48.4285 351.942C48.6922 351.503 48.9673 351.124 49.1333 350.724C52.5789 342.882 53.1841 335.407 52.5767 328.187C52.1389 322.921 51.2621 317.833 50.5689 312.606C55.4177 321.648 57.1962 332.512 58.5704 343.736C58.699 341.914 58.9453 340.048 58.9561 338.27C58.9912 331.893 57.9125 326.014 56.6912 320.215C56.198 317.882 55.6763 315.565 55.0818 312.862C60.5054 318.441 61.9832 326.377 63.0319 334.71C63.7763 332.811 63.8464 330.012 63.2887 326.893C62.1076 320.361 59.4015 314.932 56.565 309.592C56.3706 309.229 56.1926 308.843 56.1576 308.324C62.6965 312.133 65.8351 319.518 70.0088 325.82C67.6518 316.845 62.7906 310.128 56.9277 304.003C61 304.596 63.377 306.336 70.6951 315.271C69.9786 311.867 68.3145 309.675 66.4948 307.66C64.651 305.628 62.6806 303.705 60.6352 301.608C64.2286 299.665 64.9407 303.102 67.3727 303.854C66.5302 302.786 65.8713 301.967 65.0529 300.915C69.4516 300.121 73.1672 300.773 77.1043 301.151L75.7807 303.098C77.4361 302.296 78.6969 301.685 79.9577 301.074C80.7834 300.663 82.965 301.368 83.001 302.171C83.0206 302.608 82.7307 303.242 82.4386 303.698C81.2663 305.5 80.0376 307.282 78.8292 309.06C78.4675 309.592 78.1057 310.124 77.8591 310.876C80.0597 309.012 82.2686 307.136 84.649 305.112C84.3943 310.827 82.2669 316.082 79.0827 321.415C80.5053 320.048 82.044 318.795 83.3187 317.257C84.5972 315.739 85.6155 313.956 86.7828 312.238C87.5864 313.156 87.8749 314.572 87.5064 316.125C86.4728 320.497 85.2529 324.884 84.0938 329.259C83.925 329.922 83.6712 330.581 83.5467 331.256C87.008 326.501 89.1617 321.441 89.9067 316.042C90.0815 315.966 90.2481 315.902 90.4349 315.835C90.7081 317.17 91.2694 318.418 91.1815 319.843C90.8842 324.61 90.3436 329.423 89.8961 334.229C89.8451 334.848 89.7452 335.488 89.7955 336.088C92.4652 331.201 93.1839 326.385 93.3486 321.529C94.9223 323.854 95.3638 326.859 95.1232 330.09C94.7272 335.391 94.0797 340.75 93.5456 346.098C93.5192 346.293 93.5334 346.479 93.529 346.9C97.1021 339.233 97.4519 332.186 97.3163 325.127C98.5434 326.174 99.6928 332.259 99.4338 337.229C99.2045 341.688 98.7478 346.222 98.3918 350.789C101.815 342.047 101.891 334.107 100.629 326.424C105.007 334.369 104.557 344.389 103.16 354.844C106.133 346.893 106.697 339.531 104.932 332.691C108.926 339.207 108.906 347.894 109.648 356.16L109.603 356.253ZM115.562 251.703C115.532 251.877 115.501 252.051 115.451 252.229C113.445 252.563 111.458 252.893 109.124 253.268C111.556 250.572 114.061 250.1 115.562 251.703ZM139.011 193.151C137.235 193.093 135.767 193.05 134.003 193C136.379 191.061 138.398 191.072 139.011 193.151ZM70.9238 169.536C72.3173 168.627 74.0111 169.92 73.9071 172.094C72.8044 171.15 71.8863 170.349 70.9238 169.536ZM64.3872 211.737C61.8593 211.256 59.2953 210.751 56.82 210.271C60.3697 207.874 64.7105 208.721 64.3872 211.737ZM58.9426 203.934C58.8581 205.043 58.7977 205.78 58.7455 206.505C57.5724 206.468 56.5978 206.424 55.6149 206.393C55.5716 206.275 55.5404 206.165 55.4971 206.047C56.5317 205.407 57.5865 204.762 58.9388 203.913L58.9426 203.934ZM13.1174 237.675C12.8825 236.932 12.6667 236.29 12.4669 235.677C14.063 235.118 15.6426 234.582 17.2508 234.031C15.9723 235.16 14.604 236.369 13.1212 237.695L13.1174 237.675ZM40.0956 242.47C39.6175 241.384 39.2303 240.502 38.7522 239.417C40.5175 239.697 40.719 240.153 40.0956 242.47ZM32.7602 238.226C33.4329 241.565 34.0974 244.917 34.797 248.398C36.0611 244.802 35.6858 241.647 35.566 238.064C37.8224 239.722 38.9402 241.914 39.5758 244.556C39.6262 244.767 39.5176 245.083 39.4299 245.341C36.3814 254.674 33.3328 264.006 30.2601 273.322C30.1389 273.682 29.8885 274.024 29.6281 274.537C28.9637 273.855 28.2899 273.291 27.7591 272.594C27.5356 272.301 27.441 271.688 27.5753 271.232C30.7436 260.142 31.7111 249.412 32.2856 238.717C32.2906 238.632 32.3525 238.515 32.398 238.422C32.512 238.358 32.6342 238.282 32.7602 238.226ZM14.8552 243.984C14.4982 242.539 14.1993 241.346 13.8577 239.982C16.4599 238.409 18.9766 236.884 21.4852 235.371C21.5531 235.453 21.621 235.534 21.701 235.624C19.4914 238.33 17.29 241.024 14.8672 243.992L14.8552 243.984ZM17.0564 262.313C17.15 256.913 16.6667 251.74 15.4715 246.914C15.2695 246.122 15.3891 245.532 16.1941 244.788C19.0304 242.119 21.823 239.385 24.6314 236.679C24.6911 236.772 24.747 236.846 24.8067 236.939C23.1842 241.141 21.5496 245.334 19.927 249.536C20.012 249.54 20.0969 249.545 20.1818 249.55C21.6204 247.433 23.0349 245.301 24.4894 243.213C25.9559 241.133 27.4707 239.086 28.9816 237.019C29.1394 237.02 29.3175 237.017 29.4753 237.019C29.1299 240.974 28.8048 244.926 28.4545 248.967C28.769 248.686 29.157 248.348 29.7165 247.862C29.0078 255.178 28.1309 262.326 25.5976 269.993C24.8241 269.291 24.2643 268.663 23.5932 268.224C22.0265 267.159 20.4148 266.134 18.7494 265.214C17.6953 264.639 17.0265 263.99 17.0602 262.333L17.0564 262.313ZM17.6577 269.335C17.1362 268.91 17.2143 267.654 17.0172 266.778C17.1558 266.677 17.3027 266.565 17.4534 266.473C20.0445 268.623 23.6922 269.582 24.4299 274.044C22.0556 272.43 19.7602 271.012 17.6698 269.343L17.6577 269.335ZM18.502 278.254C18.3875 278.371 18.2647 278.5 18.1381 278.608C16.1828 277.933 15.84 277.453 16.6555 276.098C17.3309 276.893 17.9104 277.569 18.4899 278.246L18.502 278.254ZM-3.38422 288.184C-3.66094 288.332 -4.05819 288.398 -4.25102 288.267C-5.42884 287.537 -6.56937 286.727 -7.84688 285.858C-5.68195 284.695 -3.40838 285.498 -3.09261 287.393C-3.06252 287.608 -3.23792 288.125 -3.36395 288.181L-3.38422 288.184ZM-0.690129 287.487C-1.7211 286.645 -2.76027 285.815 -3.91558 284.87C-2.28109 284.125 -1.08794 284.936 -0.31251 286.984C-0.427602 287.153 -0.575031 287.318 -0.702174 287.479L-0.690129 287.487ZM3.261 288.829C1.78634 287.473 0.103532 285.905 -1.80388 284.149C-1.15516 284.024 -0.769423 283.897 -0.405072 283.88C3.49814 283.633 7.19687 283.972 10.6741 284.975C10.884 285.029 11.1464 285.083 11.2296 285.246C11.4197 285.641 11.5281 286.103 11.6529 286.542C11.2496 286.798 10.8288 287.184 10.4474 287.278C8.14345 287.816 5.83617 288.281 3.24072 288.833L3.261 288.829ZM8.18258 295.198C5.63359 296.33 5.09452 296.034 4.98106 293.376C6.49057 292.97 8.00009 292.563 9.59892 292.13C9.72903 293.597 9.16229 294.768 8.17435 295.21L8.18258 295.198ZM-1.20814 311.942C-1.2514 311.825 -1.30287 311.719 -1.34613 311.601C-0.900544 310.79 -0.555191 309.893 0.00652097 309.196C0.338618 308.786 0.979129 308.673 1.4794 308.429C1.43 308.891 1.53232 309.544 1.31148 309.765C0.530037 310.578 -0.354927 311.232 -1.21635 311.955L-1.20814 311.942ZM12.3223 293.256C12.3333 292.592 12.3416 292.191 12.3472 291.664C13.7685 291.569 15.0478 291.502 16.3233 291.414C16.2926 291.64 16.2618 291.867 16.2229 292.106C14.989 292.469 13.7671 292.841 12.314 293.268L12.3223 293.256ZM13.1734 300.377C12.4036 300.472 11.7073 300.123 10.9726 299.959C11.0395 299.757 11.0943 299.547 11.1612 299.345C12.6718 298.833 14.1825 298.322 15.8838 297.763C15.3075 299.829 14.1903 300.255 13.1772 300.397L13.1734 300.377ZM17.9696 306.36C17.7301 306.427 17.298 305.974 17.3254 305.674C17.4659 304.249 18.4089 303.847 19.5283 303.6C19.4947 304.868 19.3816 305.994 17.9696 306.36ZM35.2971 286.365C36.0507 285.126 36.756 283.855 37.5699 282.658C44.7098 272.128 51.8376 261.591 59.0257 251.094C61.3067 247.764 63.7684 244.557 66.2099 241.355C66.5628 240.887 67.3601 240.492 67.8499 240.471C69.8415 240.393 71.8615 240.299 73.7225 241.475C70.2223 243.021 66.9769 244.192 63.7373 247.118C68.2764 244.899 72.5013 241.405 76.6682 243.389C74.7124 245.048 72.8773 246.4 71.2618 248.024C69.6545 249.637 68.2625 251.555 66.8908 253.47C70.106 249.803 73.6437 247.009 77.6474 245.292C78.1148 245.097 78.7481 245.28 79.085 245.562C79.538 245.959 79.5884 246.559 79.0041 247.47C78.1322 248.805 77.245 249.669 75.8713 250.238C70.4742 252.475 65.6328 256.487 60.8873 260.617C53.3405 267.156 46.3037 274.45 39.5024 282.044C38.1757 283.53 36.8369 285.007 35.4981 286.484C35.4379 286.443 35.3656 286.393 35.3136 286.34L35.2971 286.365ZM6.62787 334.632C4.49345 336.735 2.51018 339.083 0.447502 341.288C0.132402 341.622 -0.358533 341.748 -0.769494 341.963C-0.828082 341.764 -0.878451 341.553 -0.937038 341.354C1.93182 337.912 4.78042 334.473 7.74353 330.917C8.15307 332.363 7.9036 333.378 6.62787 334.632ZM12.9132 326.475C12.0303 327.696 11.0751 328.868 9.93025 330.37C10.0835 328.512 9.76762 327.006 11.5162 325.419C12.7421 324.29 13.7291 322.786 14.8717 321.494C15.1501 321.188 15.6005 321.07 15.9747 320.882C15.9292 321.364 16.0364 321.932 15.8019 322.303C14.9047 323.726 13.927 325.113 12.9252 326.483L12.9132 326.475ZM37.5949 292.524C37.0069 293.026 36.3822 293.556 35.7565 293.802C35.3948 293.946 34.7538 293.722 34.6723 293.401C34.5562 292.898 34.6024 291.975 34.9181 291.588C45.4656 279.078 56.165 266.76 68.8028 257.086C71.1607 255.276 73.6966 253.852 76.455 252.05C75.683 255.026 75.0503 257.46 74.4258 259.882C74.531 259.883 74.6362 259.884 74.7293 259.876C75.728 257.656 76.7913 255.443 77.693 253.209C78.1584 252.058 78.6806 251.653 79.6236 251.64C80.441 251.629 81.3045 251.474 82.3011 251.356C81.0672 254.778 79.8502 258.124 78.6415 261.457C78.7423 261.49 78.8552 261.532 78.956 261.565C80.3776 259.136 81.7873 256.7 83.3904 253.953C84.1404 257.256 84.1228 260.444 83.3572 263.955C81.9738 264.306 80.5947 264.624 79.215 264.994C70.0193 267.531 61.3491 272.795 53.0045 279.394C47.7692 283.544 42.7278 288.109 37.5993 292.491L37.5949 292.524ZM26.2474 316.372C27.178 314.847 27.9524 313.552 28.7789 312.311C28.9762 312.02 29.3986 311.866 29.7164 311.657C29.7619 311.953 29.8884 312.234 29.8286 312.529C29.4188 314.921 29.243 315.102 26.2392 316.384L26.2474 316.372Z" fill="#333333"/>
</svg>
