<svg width="17" height="21" viewBox="0 0 17 21" fill="none" xmlns="http://www.w3.org/2000/svg">
<path d="M15.8636 8.86364C15.8636 14.5909 8.5 19.5 8.5 19.5C8.5 19.5 1.13637 14.5909 1.13637 8.86364C1.13637 6.91068 1.91218 5.03771 3.29313 3.65676C4.67408 2.27581 6.54705 1.5 8.5 1.5C10.453 1.5 12.3259 2.27581 13.7069 3.65676C15.0878 5.03771 15.8636 6.91068 15.8636 8.86364Z" stroke="#6D6D6D" stroke-width="2" stroke-linecap="round" stroke-linejoin="round"/>
<path d="M8.4996 11.3182C9.85521 11.3182 10.9542 10.2193 10.9542 8.86366C10.9542 7.50806 9.85521 6.40912 8.4996 6.40912C7.144 6.40912 6.04506 7.50806 6.04506 8.86366C6.04506 10.2193 7.144 11.3182 8.4996 11.3182Z" stroke="#6D6D6D" stroke-width="2" stroke-linecap="round" stroke-linejoin="round"/>
</svg>
