<svg width="17" height="15" viewBox="0 0 17 15" fill="none" xmlns="http://www.w3.org/2000/svg">
<path d="M5.64294 8.54805L11.0447 4.6533L12.3092 3.7878C12.9087 3.60138 12.8296 4.03191 12.7151 4.27048C11.6171 5.48551 9.13689 8.15192 8.00034 9.09731C6.86379 10.0427 7.52678 10.8117 8.00034 11.078C8.88501 11.6772 11.0665 13.1984 12.7151 14.49C14.3638 15.7816 15.0361 14.3181 15.1662 13.4248C15.7282 9.82965 16.8804 2.3231 16.9928 1.05814C17.1052 -0.20682 15.8739 -0.0792145 15.2443 0.142709L13.5426 0.825122C10.1079 2.3453 2.8047 5.59869 1.06865 6.45088C-0.66739 7.30306 0.0955118 7.90447 0.693968 8.09866L3.03575 8.84765C4.10985 9.35363 5.22142 8.85874 5.64294 8.54805Z" fill="white"/>
</svg>
