<svg width="20" height="12" viewBox="0 0 20 12" fill="none" xmlns="http://www.w3.org/2000/svg">
<path d="M0 0.412C0.117879 0.129939 0.33851 0.0100359 0.630078 0.0095077C1.43645 0.00792308 2.24335 0.00633847 3.04972 0.0095077C3.39971 0.0110923 3.64642 0.193323 3.77942 0.509718C3.9625 0.944432 4.11689 1.39182 4.29632 1.82865C4.87371 3.23632 5.545 4.59275 6.48437 5.79494C6.66849 6.03105 6.89121 6.23758 7.10663 6.44675C7.18382 6.52175 7.28762 6.57722 7.38881 6.61683C7.6543 6.72194 7.83737 6.62264 7.89005 6.33635C7.92291 6.15676 7.93126 5.97084 7.9323 5.78755C7.93595 4.76653 7.93387 3.74498 7.93439 2.72396C7.93439 2.10437 7.76904 1.54342 7.36481 1.06539C7.28501 0.970842 7.20677 0.871011 7.14679 0.763257C6.97206 0.450031 7.13792 0.0913796 7.48634 0.0206C7.56875 0.00369744 7.65429 0.00105641 7.73879 0.00105641C8.819 0 9.89869 0 10.9789 0C11.0311 0 11.0832 0.00105641 11.1348 0.00581026C11.4713 0.0338052 11.6377 0.197549 11.669 0.541939C11.682 0.686139 11.683 0.831396 11.683 0.976124C11.6841 2.294 11.683 3.61187 11.6846 4.92921C11.6846 5.05387 11.6914 5.17958 11.7081 5.30318C11.7602 5.69881 12.0299 5.85569 12.3548 5.62856C12.6772 5.40302 12.9813 5.13257 13.2384 4.83308C14.1048 3.82262 14.7583 2.66955 15.3425 1.47528C15.4838 1.18688 15.6116 0.891611 15.7446 0.598985C15.9121 0.231354 16.1869 0.0121487 16.5927 0.0095077C17.4189 0.00422565 18.2451 0 19.0708 0.0211282C19.474 0.0316923 19.6503 0.292626 19.5606 0.691421C19.5162 0.88897 19.4651 1.0918 19.3738 1.26981C19.0724 1.85876 18.7798 2.45616 18.4313 3.01658C17.8743 3.91295 17.2818 4.78713 16.6908 5.66184C16.2694 6.28565 16.2866 6.44728 16.8029 7.00295C17.6004 7.86128 18.3927 8.7249 19.16 9.61123C19.4312 9.92446 19.6534 10.2921 19.8422 10.6645C20.2026 11.3744 19.9345 11.8043 19.1506 11.8138C18.4543 11.8223 17.758 11.8096 17.0622 11.8181C16.6585 11.8228 16.3262 11.6718 16.0513 11.386C15.7107 11.0326 15.3769 10.6719 15.0441 10.3106C14.497 9.7174 13.9217 9.15433 13.2603 8.69109C12.939 8.46608 12.6052 8.26114 12.1879 8.27592C11.8703 8.28702 11.7373 8.39847 11.7133 8.72437C11.6903 9.03284 11.6804 9.34237 11.6778 9.6519C11.6736 10.113 11.6893 10.5747 11.6809 11.0353C11.6742 11.424 11.5255 11.6343 11.15 11.7056C10.7885 11.7742 10.4151 11.8096 10.0479 11.8065C8.59837 11.7938 7.30431 11.2846 6.11092 10.4854C4.96603 9.71898 4.05482 8.71751 3.27192 7.58398C2.12077 5.91749 1.10316 4.17863 0.416227 2.25966C0.250884 1.79854 0.137177 1.3184 0 0.846714C0 0.701985 0 0.556729 0 0.412Z" fill="white"/>
</svg>
