<svg width="100" height="118" viewBox="0 0 100 118" fill="none" xmlns="http://www.w3.org/2000/svg">
<path d="M97.7898 89.8556C95.7707 85.2946 92.5669 82.8548 89.1783 80.7463C93.3567 81.8038 96.949 84.4155 100 88.486C99.5924 87.2311 98.9044 86.3138 98.1146 85.5876C96.4777 84.0843 94.7962 82.6701 93.1338 81.2177C92.9681 81.0712 92.7962 80.9374 92.6561 80.7399C95.3248 81.5681 97.4841 83.7275 99.6497 85.8743C96.9745 81.6955 93.3631 79.9373 89.6369 78.4531C90.8981 78.4849 92.121 78.8353 93.2803 79.4595C94.4586 80.0902 95.6242 80.7845 96.7389 81.5999C97.8471 82.4153 98.8917 83.409 99.9936 84.2817C99.8662 84.0906 99.7452 83.8804 99.6051 83.7148C98.0573 81.912 96.7516 79.7144 94.9809 78.2747C92.8662 76.5675 90.5287 75.7203 88.1847 74.8603C87.414 74.58 86.6943 74.0322 85.9363 73.6818C84.0127 72.79 82.0637 72.9684 80.121 73.6309C80.2102 72.9684 80.4076 72.6563 80.9681 72.4524C81.3885 72.2995 81.8217 72.2486 82.3631 72.1275C80.5987 70.9937 79.1019 71.5861 77.656 72.9811C77.6115 72.083 78.1974 71.9619 78.4522 71.4905C77.4586 70.9937 76.6178 71.3249 76.0064 72.5289C75.5287 73.4653 75.0764 74.4271 74.6624 75.4145C74.4395 75.9432 74.1911 76.1598 73.7389 76.1343C73.3312 76.1089 72.7643 75.8031 72.6879 76.8351C72.6815 76.9306 72.4713 76.9879 72.3567 77.0708C70.5096 78.3639 68.6624 79.6634 66.8089 80.9565C66.7134 81.0202 66.5987 81.1094 66.5096 81.0903C65.0573 80.7463 63.7325 81.3897 62.4713 82.1923C60.7261 83.3071 59.0318 84.5748 57.3121 85.7787C57.2484 85.8233 57.1847 85.8551 56.9873 85.9698C57.2611 84.6639 57.4841 83.4791 57.758 82.3134C58.9936 77.0198 60.7261 72.0702 63.1465 67.592C64.6369 64.8401 66.535 62.9801 68.949 62.1265C70.0318 61.7443 70.879 62.4322 71.6943 63.2603C71.8153 63.3814 71.9236 63.5215 72.0382 63.6425C72.0573 63.668 72.1019 63.6489 72.3121 63.6744C71.758 62.8208 71.293 62.0946 70.7643 61.2792C71.5414 60.9926 72.3057 60.9735 73.0573 61.2474C73.7962 61.5149 74.535 61.8334 75.242 62.2348C75.9618 62.6488 76.6433 63.1966 77.3694 63.6298C76.535 61.9481 75.2293 61.2219 73.7771 60.432C76.7197 59.6676 79.2803 60.432 81.7006 62.5214C81.3567 61.2983 80.586 60.7887 77.1656 59.3873C78.4395 59.1389 79.7325 59.1134 80.9936 59.4446C82.2612 59.7759 83.5032 60.3046 84.8917 60.7951C83.0191 59.3427 81.0955 58.7312 79.0573 58.1833C80.242 57.7502 82.4395 57.7374 83.8153 58.2662C85.3057 58.8395 86.7643 59.5402 88.1974 60.1708C85.8153 57.9285 83.0892 57.0941 80.2166 56.8584C83.8854 55.457 87.4841 55.7818 91.0064 57.8585C87.9682 55.2977 84.6306 55.4506 81.2866 55.6289C85.3822 54.1957 89.1783 55.6289 92.9108 58.0559C92.1465 56.6927 88.8217 54.718 86.5732 54.3804C84.2803 54.0364 81.9745 53.8071 79.949 53.5586C83.5669 52.6477 87.3439 53.6287 91.0892 55.1384C91.1083 55.0429 91.121 54.9537 91.1401 54.8582C89.5669 54.2466 88.0191 53.4949 86.4268 53.0618C84.828 52.6222 83.1911 52.5012 81.6115 52.2464C83.7962 51.3864 86.0701 51.4884 88.4268 51.9152C86.5478 50.9596 83.414 50.2398 76.4841 53.2465C77.2484 51.482 78.8917 50.5583 80.121 51.2909C80.0382 50.8959 79.9745 50.5774 79.8917 50.1952C81.6369 49.0996 83.414 48.1249 85.4013 48.1823C83.8471 47.5389 82.3248 47.8383 80.8153 48.4498C80.7834 48.4625 80.7452 48.488 80.7134 48.5135C79.4522 49.348 78.1274 49.7939 76.7261 49.7621C76.707 49.7621 76.6879 49.7621 76.6688 49.7621C75.5987 50.2207 74.5605 50.5583 73.3949 50.1124C72.4586 49.7557 71.7452 50.7558 71.0701 51.5521C70.7261 51.9597 70.414 52.412 70.0828 52.8579C69.6879 52.068 70.7771 51.2081 69.8726 50.5583C68.9363 50.8959 68.2739 51.6858 68.0701 53.1127C67.9681 53.8262 67.4713 53.6478 67.1401 53.788C67.0255 53.8389 66.8025 53.6287 66.6943 53.4504C66.1974 52.6222 65.6433 52.0171 64.8599 52.2146C65.0446 52.756 65.2994 53.2911 65.3885 53.8772C65.4395 54.2339 65.293 54.7371 65.1146 55.0365C65.0255 55.1894 64.6497 55.0875 64.4268 54.9919C63.4522 54.5906 62.4841 54.1447 61.5159 53.7179C61.4968 53.788 61.4777 53.8644 61.4586 53.9345C62.0318 54.4122 62.5987 54.89 63.2357 55.4187C62.9045 55.648 62.6879 55.8519 62.4522 55.9474C62.2548 56.0303 62.0127 56.0748 61.8217 55.992C61.0127 55.6226 60.2229 55.2021 59.4204 54.7945L59.3376 55.0556C59.7643 55.3869 60.1911 55.7118 60.6688 56.0876C60.5478 56.215 60.4777 56.3488 60.3949 56.3679C59.6879 56.4953 58.9681 56.7373 58.2675 56.68C57.0573 56.5845 55.9427 57.0049 54.828 57.5209C54.5732 57.6419 54.3185 57.7629 53.9809 57.9286C54.0318 56.7883 54.0255 55.7436 54.1274 54.718C54.3885 52.1891 54.6306 49.6474 55.0127 47.1439C55.8981 41.3853 57.9299 36.4995 61.0701 32.499C61.6624 31.741 62.2675 30.9957 62.879 30.2185C63.1401 30.5498 63.363 30.8301 63.6497 31.1932C63.6497 30.9256 63.6497 30.7791 63.6497 30.6326C63.6624 30.3077 63.6178 29.7535 63.707 29.7089C64.0828 29.5242 64.5414 29.2885 64.8853 29.4414C65.4204 29.6707 65.8853 30.2058 66.4331 30.6581C66.1911 30.1676 65.9809 29.7408 65.758 29.2885C66.3015 29.1568 67.2484 29.7089 68.5987 30.9447C68.242 30.3523 67.8853 29.7662 67.5159 29.1547C68.3121 28.9318 68.4841 29.0209 71.3949 30.9256C71.1274 30.5816 70.879 30.2122 70.5987 29.8936C70.3185 29.5751 70.0064 29.3076 69.7197 28.9827C71.2611 29.3777 72.5287 30.5434 73.7898 31.741C72.8471 29.8682 71.3312 29.1611 69.949 28.161C72.1019 28.2693 73.9172 29.5815 75.6624 31.1677L75.7516 31.0084C75.3694 30.5752 75.0127 30.1039 74.6051 29.728C74.1975 29.3458 73.7516 29.0337 73.2994 28.7407C72.8471 28.4476 72.3758 28.2119 71.9236 27.8871C74.0191 27.868 75.949 28.677 77.7516 30.123C76.7834 28.6578 74.586 27.766 71.3376 27.4284C72.6242 26.836 73.9554 26.8105 75.2612 27.1226C76.5669 27.4348 77.8408 28.0017 79.1338 28.4604C77.6497 27.1609 75.9554 26.8615 74.2739 26.4856C76.1974 25.8805 77.9554 26.887 79.758 27.6323C79.2166 26.957 78.0446 26.3327 76.4841 25.9824C75.3376 25.7276 74.172 25.562 72.9299 25.339C74.5414 24.4727 76.0573 24.6893 77.5732 25.5237C77.5987 25.4282 77.6242 25.3326 77.6433 25.2435C77.414 25.0715 77.1911 24.8613 76.949 24.7339C75.3822 23.893 73.758 23.6764 72.0828 23.8102C71.0637 23.893 70.0446 23.8166 69.0255 23.8102C68.9554 23.8102 68.8726 23.7911 68.8153 23.7465C67.4904 22.6508 66.3885 23.4853 65.3121 24.5173C65.1911 24.6319 65.0764 24.7593 64.9554 24.8804C64.9299 24.9058 64.8854 24.9058 64.7006 24.9568C64.9427 24.3644 65.1338 23.9121 65.3567 23.3706C64.1592 23.7401 63.5541 24.9313 63.0127 26.269C62.6943 25.4282 62.7134 24.2688 61.7516 24.1351V26.6194C61.0191 26.148 60.3376 25.7085 59.6561 25.2689C59.6051 25.3581 59.5541 25.4473 59.5095 25.5365C59.6688 25.7085 59.828 25.8741 59.9809 26.0525C60.1338 26.2308 60.3185 26.3901 60.4331 26.6194C60.7962 27.3329 61.2548 28.0208 61.4459 28.8235C61.6369 29.6261 61.7325 30.5243 61.0255 31.2441C58.4968 33.824 56.7962 37.3085 55.5924 41.2643C54.4522 44.9908 53.7771 48.8957 53.4268 52.9089C53.3885 53.3803 53.3248 53.8517 53.1847 54.3167C53.1847 54.0491 53.1847 53.7816 53.1847 53.5141C53.1401 43.118 53.1019 32.722 53.0573 22.3259C53.0573 21.0774 53.0573 19.8225 53.0064 18.5739C52.9745 17.7904 53.1847 17.1916 53.5732 16.6693C55.0127 14.7264 56.7389 13.3696 58.4586 11.9872C58.6497 11.8344 58.8344 11.6815 59.0255 11.5286C59 11.4649 58.9809 11.4012 58.9554 11.3311C58.0255 11.9618 57.0955 12.5924 56.0446 13.3059C57.0064 11.7261 58.0955 10.6495 59.2038 9.55385L56.4841 11.5732C57.3057 10.0635 58.4904 9.27994 59.6369 8.40723C58.1656 8.89136 56.879 9.91695 55.5669 10.9999C55.9299 10.3756 56.2803 9.72585 56.6624 9.12706C57.0764 8.47731 57.5096 7.84666 57.9554 7.23513C58.3885 6.64271 58.8471 6.09487 59.2675 5.47697C57.5287 6.57263 56.2866 8.51552 54.8408 10.4648C55.2739 7.65555 56.1146 5.30499 56.9936 2.96715C56.949 2.92893 56.9045 2.88434 56.8599 2.84612C56.4841 3.58505 56.0764 4.2985 55.7388 5.06928C55.3949 5.84644 55.1019 6.66819 54.8153 7.48356C54.5223 8.32442 54.2611 9.18439 53.9363 10.0316C53.8599 6.80833 53.9745 3.57231 53.2994 0.44458C53.2484 0.44458 53.1911 0.44458 53.1401 0.44458V8.19702C53.0764 8.20339 53.0127 8.20975 52.949 8.21612C52.6369 5.77 52.3248 3.32388 52.0191 0.877753L51.8344 0.896863V8.17154C51.1338 5.49609 50.828 2.60405 48.8535 0.960558C50.0318 3.20921 50.6433 5.72541 50.7388 8.50278C50.1019 6.13309 49.2357 4.05007 47.4204 3.05633C48.7134 4.54694 50.0127 6.02481 50.0701 8.63656C49.4586 7.13321 48.949 5.52156 47.7898 4.59153C48.1465 5.24765 48.4968 5.91014 48.8535 6.56627C48.8344 6.59812 48.8153 6.62996 48.7962 6.66181C48.4013 6.3879 48.0064 6.12035 47.6051 5.84644C47.8599 6.4516 48.6178 6.43886 48.5032 7.48993C48.9873 7.42623 49.1401 7.92311 49.293 8.45183C50.2357 11.7197 51.1911 14.9812 52.1338 18.2491C52.1783 18.4083 52.2102 18.5867 52.2102 18.7587C52.1401 30.2249 52.0701 41.6911 51.949 53.1892C50.8599 46.6917 49.4713 40.4107 45.6306 35.8306C45.6433 35.7542 45.6561 35.6777 45.6752 35.6013C45.9172 35.5822 46.1529 35.563 46.414 35.5376C46.535 34.5311 46.8662 34.3336 47.8471 34.8178C47.5032 34.0724 47.4204 34.0406 45.3312 33.9068C45.2994 33.41 45.2548 32.894 45.2357 32.3716C45.2229 31.983 45.2611 31.5817 44.8726 31.4862C44.4904 31.397 44.4777 31.8174 44.3949 32.1359C44.3312 32.3716 44.2675 32.6073 44.1783 32.9513C43.3185 31.741 42.3439 31.0084 41.121 31.0212C41.5414 31.4352 41.949 31.8365 42.3567 32.2315C42.3376 32.257 42.3185 32.2824 42.2994 32.3079C41.3822 31.9958 40.4713 31.6327 39.5478 31.397C38.6815 31.1804 37.8535 31.346 37.0446 31.9448C36.586 32.2824 35.9873 32.2761 35.4459 32.3844C33.7006 32.7411 31.9873 33.2571 30.4267 34.4929C30.6242 34.4547 30.8217 34.4228 31.0637 34.3782C30.3949 35.2382 29.2611 35.2254 29.0637 36.646C29.7834 36.009 30.5096 35.3337 31.2611 34.7222C31.6178 34.4355 32.0191 34.2635 32.4459 34.1553C31.6879 34.8942 30.9236 35.6395 30.1656 36.3784C30.1783 36.4039 30.1911 36.423 30.2038 36.4485C31.4013 35.5758 32.6051 34.6967 33.8025 33.824C33.828 33.8813 33.8535 33.9387 33.879 33.996C32.9809 34.9388 31.8535 35.5248 31.3057 37.0537C32.6879 34.7795 34.6178 34.0979 36.586 33.5119C35.6943 34.1744 34.879 34.9324 34.2866 36.079C36.4713 34.0279 37.5096 33.4545 38.7834 33.6902C38.0828 34.3591 37.4268 34.9834 36.7643 35.6076C36.7898 35.6713 36.8217 35.7414 36.8471 35.8051C38.0573 34.8687 39.2293 33.7412 40.6815 33.9323C40.3057 34.7923 39.9427 35.6331 39.5732 36.474C39.6242 36.5186 39.6752 36.5632 39.7261 36.6141C40.2675 35.9962 40.8089 35.3719 41.3567 34.754C41.8535 34.1871 42.3885 34.0342 43.0064 34.5184C43.0191 34.9897 43.0382 35.4802 43.0573 36.0854C43.3185 35.5376 43.5223 35.098 43.7516 34.6203C45.5924 36.2829 46.9554 38.3787 48.0382 40.8503C49.5924 44.3793 50.4395 48.2651 51.1338 52.2464C52.242 58.591 52.0064 65.0503 52.1083 71.4778C52.1656 74.8221 52.121 78.1664 52.121 81.6445C51.5032 81.2878 50.9363 80.9693 50.3822 80.6189C50.2866 80.5552 50.2229 80.3514 50.1783 80.1921C48.6943 75.2871 47.2102 70.3821 45.7261 65.4708C45.7006 65.3816 45.707 65.2797 45.6879 65.1332H46.465L46.5223 64.9739C46.2357 64.7892 45.9427 64.6044 45.656 64.4069C45.4713 64.2795 45.2293 64.1776 45.121 63.9674C43.5159 60.7441 41.9236 57.5081 40.2803 54.1638C42.1783 50.9023 44.8153 49.4053 47.949 49.3735C47.949 49.3034 47.9618 49.227 47.9682 49.1569C47.5414 49.0868 47.1083 49.0359 46.6815 48.9276C46.5032 48.8766 46.3503 48.6791 46.1783 48.5581C45.828 48.3224 45.4841 48.0549 45.121 47.8892C44.9236 47.7937 44.6688 47.8064 44.465 47.8892C43.7325 48.1632 43.1656 48.0039 42.6178 47.163C42.1911 46.5005 41.5223 46.4814 40.9299 46.921C40.5287 47.214 40.1465 47.5644 39.7134 47.9211C39.6306 47.1439 39.4777 46.4114 38.8089 46.182C38.2994 46.0101 37.7261 46.2649 37.414 46.7936C36.7771 46.3222 36.1592 45.8572 35.535 45.4176C34.9108 44.9781 34.3185 45.1756 33.7898 45.7107C33.5032 46.0037 33.2548 46.0483 32.9363 45.8317C31.879 45.1119 30.758 45.0036 29.6051 45.2329C29.4841 45.2584 29.3567 45.2074 29.2293 45.1883C28.2675 45.0291 27.3057 44.8443 26.3439 44.7105C25.5414 44.5959 24.7325 44.5322 23.9299 44.4557C21.121 44.1818 18.3312 44.3092 15.6433 45.6024C14.7898 46.0164 13.9936 46.6598 13.2102 47.3032C14.2102 46.9974 15.0446 45.9336 16.1656 46.2394C15.3376 46.7808 14.5096 47.3223 13.6879 47.8638C13.7006 47.9147 13.7197 47.9593 13.7325 48.0103C14.5732 47.5835 15.414 47.1567 16.2484 46.7235C16.2611 46.7681 16.2739 46.8127 16.2866 46.8636C15.7771 47.3032 15.2611 47.7427 14.7516 48.1823C15.758 47.6535 16.6497 46.7171 17.8726 46.7872C17.6688 47.1694 17.4968 47.4815 17.2611 47.9211C18.3567 47.2904 19.2229 46.0292 20.4777 46.5706C19.3057 47.2204 18.1338 47.8701 16.9618 48.5199C16.9873 48.6091 17.0064 48.7046 17.0318 48.7938C18.9427 47.4433 20.9682 46.9528 23.1146 47.1376C22.7898 48.2714 21.9554 48.1377 21.3694 48.6282C21.586 48.5836 21.8089 48.539 22.0892 48.4753C22.0064 48.7938 21.9427 49.0359 21.8344 49.4308C22.0064 49.227 22.1083 49.1187 22.2038 49.004C22.8726 48.2268 23.5796 47.73 24.5159 47.8447C25.4204 47.9593 26.3376 47.8701 27.2548 47.8701C27.1529 49.1951 26.3822 48.8894 25.7898 49.2079H26.6051C26.6178 49.4053 26.6369 49.6092 26.6497 49.8321C28.0191 48.4944 29.414 48.539 30.8981 49.6792C30.293 49.9468 29.7452 50.1952 29.1911 50.4373C29.1975 50.5265 29.2038 50.6156 29.2102 50.7048C31.0382 49.813 32.7834 49.813 34.4331 51.6349C34.0828 51.8387 33.7452 52.0426 33.3567 52.2655C33.9172 52.2273 34.4331 52.2528 34.9363 52.1508C35.8471 51.9725 36.5669 52.4885 37.2803 53.1764C39.4586 55.2913 41.1146 58.0878 42.6306 61.0626C43.1146 62.0182 43.5796 62.9928 44.1083 64.0693C43.5159 64.1394 42.9873 64.1394 42.4777 64.2859C41.7325 64.4961 41 64.8083 40.2611 65.0758C39.7197 65.2669 39.1783 65.4835 38.6242 65.6045C38.4968 65.63 38.2803 65.3816 38.1911 65.1777C37.051 62.5978 35.3057 61.2729 33.242 60.5976C33.1592 60.5722 33.0764 60.5976 32.9554 60.5976C33.4968 61.0627 34 61.4894 34.5032 61.9226C34.4777 62.0118 34.4522 62.1073 34.4267 62.1965C32.7452 60.7505 30.9108 60.4065 28.9108 60.6486C30.2803 61.0435 31.6178 61.1709 32.758 62.222C30.5541 61.7442 28.3758 61.7761 26.2038 62.5278C27.586 62.5214 28.9873 62.1265 30.2803 62.738C28.9236 63.0756 27.5223 63.4323 26.121 63.7636C25.9873 63.7954 25.8344 63.719 25.7006 63.6489C24.7771 63.1266 23.9363 63.3304 23.1656 64.1649C22.8726 64.4834 22.6242 64.5917 22.2166 64.4643C21.5096 64.2477 20.7962 64.4388 20.1338 64.9166C19.9363 65.0631 19.6879 65.1268 19.4586 65.1523C18.6051 65.2287 17.7452 65.2096 16.8917 65.337C15.7261 65.509 14.5478 65.6491 13.4204 66.0505C12.0064 66.5473 10.6306 67.2544 9.26114 67.9424C6.77707 69.1845 4.28662 70.3949 1.98726 72.2358C1.6879 72.4779 1.36306 72.6881 1.0828 72.9684C0.942673 73.1085 0.872609 73.3761 0.694265 73.7392C2.03184 72.7518 3.21656 71.8855 4.3949 71.0191C4.42675 71.0956 4.46497 71.172 4.49681 71.2485C4.21656 72.1339 3.96178 72.9429 3.17197 73.3315C1.94904 73.9303 0.910828 75.0132 0 76.3318C2.77707 73.994 5.6879 72.0702 8.83439 70.8981C6.24204 72.6244 3.50955 74.0513 1.54777 77.1727C4.75796 73.7264 8.21656 71.0637 12.3822 70.6115C11.0764 71.4396 9.76433 72.2422 8.47134 73.1022C7.15924 73.9749 5.91083 75.0068 4.88535 76.4911C8.07006 73.5735 11.4586 71.3695 15.3949 70.5286C14.2484 71.4842 13.1911 72.3059 12.1783 73.2168C11.1656 74.1341 10.2803 75.2617 9.69427 76.7841C11.8981 73.943 14.293 71.5733 17.3885 70.9236C16.1083 71.7644 15.0764 72.9684 14.4331 74.752C15.4076 73.3888 16.4395 72.153 17.8025 71.3886C17.4331 72.1721 17.0955 72.8792 16.7643 73.5863C16.8025 73.6309 16.8408 73.6755 16.879 73.7201C18.1338 71.8409 19.2803 69.6942 21.4459 70.293C20.1592 72.0256 18.8535 73.7774 17.5541 75.5356C17.6051 75.6184 17.6624 75.7012 17.7134 75.784C19.1465 73.8793 20.6369 72.0638 22.465 70.8981C21.2166 72.7964 19.8025 74.4909 18.8854 76.7714C19.758 75.5801 20.6051 74.338 21.5223 73.2105C22.2611 72.2995 23.0892 71.5224 23.879 70.6943C24.4968 70.0445 25.1783 69.8024 25.9427 70.1847C24.656 72.2486 23.3631 74.3252 22.0637 76.4019C22.1146 76.4656 22.1656 76.5357 22.2166 76.5994C24.0382 73.8411 26.0318 71.3886 28.6242 69.7005C28.0701 71.172 27.5605 72.4524 27.1019 73.771C26.656 75.0642 26.2739 76.3955 25.9618 77.7651C26.6242 76.4656 27.2484 75.1151 27.9681 73.873C28.6051 72.7582 29.3185 71.7135 30.051 70.707C30.586 69.9681 30.6178 70.019 31.3503 70.5223C30.5478 72.5989 29.8853 74.752 29.8408 77.1727C30.414 74.8985 31.242 72.8346 32.3822 71.0255C33.3885 71.7708 33.3758 71.7644 33.2675 73.2359C33.2038 74.1214 33.1847 75.0132 33.2166 75.9305C33.5223 74.7075 33.8344 73.4844 34.1529 72.2231C34.6433 72.6881 35.121 73.0831 35.5414 73.5672C35.6943 73.7392 35.758 74.1086 35.7898 74.4017C35.828 74.7775 35.8025 75.1661 35.8726 75.5801C35.9745 75.1852 36.0764 74.7839 36.1975 74.2934C37.949 75.7458 39.3439 77.7014 40.8662 79.6698C40.5096 79.8418 40.2166 79.9819 39.9236 80.122C40.6051 80.0265 41.3376 79.7462 41.6115 81.154C40.0318 81.3897 38.4076 81.498 36.9108 82.4471C38.7134 82.1732 40.5032 81.6445 42.3439 82.1541C39.8726 83.0459 37.3758 83.753 35.3185 85.8424C36.465 85.3774 37.6306 84.7595 38.8408 84.4537C40.1529 84.1225 41.5095 84.0652 42.8471 83.9314C43.0191 83.9123 43.1975 84.1289 43.3631 84.3263C40.5669 85.6832 37.7006 86.696 35.5032 89.6454C38.2229 87.4604 41.1465 86.2692 44.3439 86.3074C44.1783 86.4412 44.0191 86.6068 43.8471 86.7087C42.2293 87.6388 40.5796 88.5752 39.3248 90.276C38.4395 91.48 37.4841 92.0597 36.3057 92.1679C36.1338 92.1807 35.9618 92.3081 35.8089 92.4673C36.414 92.4036 37.0127 92.3399 37.7898 92.2571C37.3631 92.9196 37.2611 93.6012 36.5796 93.7286C35.5541 93.9197 34.5541 94.3656 33.5605 94.7733C34.8599 94.5567 36.1592 94.3402 37.4586 94.1236C37.4586 94.1554 37.4586 94.1873 37.4522 94.2191L31.6051 97.2449C31.6306 97.3341 31.656 97.4297 31.6752 97.5189C32.5732 97.0666 33.4586 96.5761 34.3631 96.1811C35.2611 95.7862 36.1847 95.4868 37.1274 95.2383C33.828 97.022 31 99.6401 28.9618 103.717C31.2484 100.799 33.7261 98.2705 36.6497 96.6653C34.051 99.1432 31.5414 101.774 29.6242 104.94C31.9108 102.73 34.3376 100.379 36.7707 98.0285C36.8153 98.1049 36.8599 98.175 36.9045 98.2514C34.6051 101.105 32.4713 104.144 31.0701 108.017C32.8344 104.864 34.8535 102.08 37.1911 99.7102C35.2739 103.176 33.2675 106.552 31.7516 110.412C32.8726 108.596 33.9745 106.756 35.1274 104.972C36.293 103.163 37.5096 101.411 38.8025 99.742C37.4076 103.5 36.0127 107.259 34.6178 111.017C34.6624 111.049 34.707 111.087 34.7516 111.119C36.7388 107.412 38.7197 103.711 40.707 100.003C39.6242 104.246 38.4268 108.418 37.8217 112.858C39.3185 108.354 40.758 103.819 42.8535 99.742C42.1465 104.176 41.4204 108.59 41.2484 113.005C42.3822 108.577 43.5414 104.048 44.707 99.5127L44.8662 99.5637C45.1783 103.742 44.8981 107.998 45.6497 112.151C45.2229 108.393 46.8535 105.615 47.9108 102.57C47.9745 102.558 48.0382 102.545 48.0955 102.532C48.4777 103.991 48.8917 105.437 49.2357 106.908C49.9745 110.049 50.465 113.279 50.6369 116.559C50.6497 116.846 50.6624 117.132 50.6752 117.419C52.1083 117.476 53.758 117.419 55.0064 117.419C55.0955 116.037 55.1974 114.884 55.3567 113.521C55.7516 110.151 56.2994 106.819 56.7452 103.462C56.8344 102.812 57.0637 102.468 57.5159 102.284C57.0446 101.214 57.7325 100.449 57.7898 99.4808C58.1465 99.6146 58.4395 99.7293 58.7261 99.8376C58.7516 99.7739 58.7834 99.7102 58.8089 99.6465C58.5924 99.3726 58.3694 99.105 58.1019 98.7674C58.2675 98.073 58.4522 97.3214 58.6306 96.5697H58.7389C59.4713 101.214 60.2038 105.864 60.9554 110.641C61.3312 109.183 61.4267 104.418 61.2611 102.367C61.0446 99.6401 60.9172 96.8946 60.8153 94.1236C62.8917 98.691 64.1974 103.742 65.5541 108.756C65.6051 108.756 65.6624 108.749 65.7134 108.743C65.7134 107.66 65.7707 106.571 65.7006 105.501C65.414 100.908 64.3057 96.6207 63.0382 92.4036C63.0127 92.3145 62.9936 92.2189 62.9554 92.0851C63.7516 92.8241 65.8471 96.7226 67.0319 99.5191C68.1592 102.188 69.242 104.895 70.4904 107.558C70.2803 106.106 70.1401 104.622 69.8408 103.201C69.535 101.749 69.1338 100.322 68.6624 98.9585C68.1975 97.608 67.6306 96.3213 67.0382 95.06C66.4395 93.7796 65.758 92.5693 65.0191 91.136C65.3822 91.3526 65.6242 91.4736 65.8471 91.6265C67.5223 92.7858 68.9172 94.4485 70.172 96.334C71.6688 98.589 73.1083 100.914 74.6178 103.284C74.6051 103.061 74.6115 102.857 74.5732 102.672C73.8917 99.0031 72.2739 96.162 70.2803 93.7095C68.828 91.9195 67.2611 90.3015 65.7261 88.5879C69.7006 90.6582 73.0127 94.1363 76.2675 97.8437C75.8662 97.1558 75.4968 96.4232 75.0637 95.7798C73.5096 93.4738 71.6752 91.6201 69.8089 89.8301C69.0573 89.1103 68.2994 88.4032 67.4204 87.5751C70.7516 88.2567 73.2357 90.7538 75.6624 93.4993C75.465 92.633 74.8026 91.6074 73.8344 90.62C71.8026 88.5561 69.4904 87.2629 67.1529 86.0335C66.9936 85.9507 66.8344 85.8552 66.6943 85.6768C69.9936 85.4475 72.9427 87.3394 76 88.5879C72.9427 85.9316 69.535 84.7022 65.9108 83.9314C67.5287 83.1479 68.8153 83.1924 73.6561 84.6193C72.5605 83.5683 71.4204 83.1861 70.2675 82.9058C69.1019 82.6255 67.9172 82.4153 66.6624 82.1605C67.4841 80.5807 68.586 81.6445 69.6497 81.3196C69.0828 81.1413 68.6433 81.0075 68.0892 80.8291C69.4841 79.4659 70.9873 78.7907 72.5032 77.9626V78.9882C72.9045 78.2938 73.2102 77.7651 73.5159 77.2364C73.7134 76.886 74.6752 76.6057 74.8853 76.886C75 77.0389 75.0509 77.3383 75.0573 77.574C75.0764 78.5104 75.0701 79.4532 75.0701 80.3896C75.0701 80.6699 75.0701 80.9502 75.1656 81.2814C75.5032 80.0711 75.8408 78.8544 76.2038 77.5422C77.5159 79.6634 78.0382 82.0777 78.1975 84.7786C78.3758 83.9377 78.6242 83.1096 78.707 82.2433C78.7962 81.3833 78.7261 80.4915 78.7261 79.587C79.242 79.7207 79.6943 80.1603 79.9427 80.81C80.6433 82.6382 81.2803 84.5174 81.9363 86.3775C82.0382 86.6578 82.1083 86.9572 82.2293 87.2311C82.3121 84.6703 81.8471 82.3197 80.7898 80.1921C80.8344 80.122 80.879 80.0583 80.9299 79.9883C81.3567 80.4023 81.8662 80.7145 82.1847 81.2495C83.2484 83.0396 84.2357 84.906 85.2548 86.747C85.3885 86.9827 85.5096 87.2375 85.6752 87.4413C85.4395 85.027 84.5159 83.116 83.3822 81.326C84.5223 81.7783 85.4204 82.7529 86.1274 83.976C87.2866 85.9826 88.3694 88.0719 89.4904 90.1295C89.5287 90.2059 89.5796 90.2697 89.6815 90.4225C89.0892 86.7852 87.4841 84.1607 85.7006 81.6509C86.4013 81.7273 88.3121 83.6383 89.4395 85.4921C90.4522 87.1546 91.4013 88.9001 92.3949 90.6327C91.4841 86.645 89.5605 83.7657 87.2166 81.3069C90.7516 83.0969 93.0509 86.817 95.1146 90.9258C94.2357 87.333 92.6306 84.5429 90.3121 82.5108C93.3567 83.8804 95.4841 87.0145 97.7834 89.811L97.7898 89.8556ZM74.2548 50.7303C74.2866 50.8004 74.3185 50.8705 74.3439 50.9469C73.7006 51.5584 73.0637 52.1636 72.3121 52.8707C72.5287 51.3036 73.3185 50.5201 74.2548 50.7303ZM68.344 23.893C67.6879 24.3071 67.1465 24.651 66.4968 25.0651C66.879 23.7847 67.6115 23.2942 68.344 23.893ZM37.9299 32.0595C38.2102 31.3906 39.1401 31.4416 39.6369 32.2506C39.0064 32.1805 38.4777 32.1168 37.9299 32.0595ZM45.9363 48.8639C44.9045 49.3098 43.8535 49.7557 42.8408 50.1888C43.535 48.4562 45.3121 47.6981 45.9363 48.8639ZM42.0509 47.386C42.293 47.8064 42.4522 48.0867 42.6115 48.3606C42.1783 48.6345 41.8153 48.8575 41.4522 49.0868C41.4076 49.055 41.3694 49.0231 41.3248 48.9913C41.5414 48.5071 41.7643 48.0166 42.0446 47.3796L42.0509 47.386ZM33.7771 70.7643C33.5096 70.5541 33.2739 70.3758 33.051 70.2038C33.4904 69.6113 33.9299 69.0317 34.3758 68.4392C34.1911 69.1591 33.9936 69.9299 33.7834 70.7707L33.7771 70.7643ZM44.707 65.8848C44.2675 65.6109 43.9108 65.388 43.4713 65.114C44.1783 64.7828 44.3631 64.8975 44.707 65.8848ZM41.0127 66.1524C42.0764 67.1907 43.1401 68.2354 44.2484 69.3183C43.8217 67.7131 42.9108 66.6683 41.9873 65.4071C43.2102 65.4517 44.1529 65.9676 45.0318 66.7639C45.1019 66.8276 45.1401 66.9677 45.172 67.0824C46.3631 71.1911 47.5541 75.2999 48.7325 79.4086C48.7771 79.5678 48.7707 79.7526 48.8025 80.001C48.3949 79.9182 48.0127 79.88 47.6497 79.7589C47.4968 79.708 47.3121 79.5105 47.2484 79.313C45.6688 74.5418 43.3822 70.4395 40.9618 66.4454C40.9427 66.4135 40.9363 66.3562 40.9299 66.3116C40.9554 66.2607 40.9809 66.2033 41.0127 66.1524ZM35.9554 72.6117C35.4713 72.1785 35.0701 71.8218 34.6115 71.4141C35.1656 70.2101 35.7006 69.0444 36.2357 67.885C36.2803 67.8978 36.3248 67.9105 36.3758 67.9233C36.242 69.4394 36.1083 70.9491 35.9618 72.6117H35.9554ZM41.2548 78.676C39.9618 76.7077 38.5159 74.9622 36.8981 73.5162C36.6306 73.2805 36.5287 73.0385 36.6369 72.5734C37.0064 70.9172 37.3439 69.2483 37.6943 67.5857C37.7389 67.6048 37.7771 67.6175 37.8217 67.6366C38.2675 69.5476 38.707 71.4587 39.1529 73.3697C39.1847 73.3506 39.2166 73.3315 39.2484 73.3124C39.2484 72.1976 39.2357 71.0828 39.2484 69.9744C39.2675 68.866 39.3121 67.7576 39.3503 66.6429C39.4076 66.6047 39.4713 66.5601 39.5287 66.5218C40.3758 68.0315 41.2293 69.5349 42.0955 71.0765C42.1401 70.8981 42.1974 70.6815 42.2803 70.3694C43.8217 73.1786 45.2611 75.9687 46.2293 79.3513C45.7771 79.2876 45.4204 79.1984 45.0701 79.2047C44.242 79.2047 43.4076 79.2302 42.5796 79.3067C42.0573 79.3576 41.656 79.2876 41.2611 78.6824L41.2548 78.676ZM43.1975 81.0584C42.9045 81.033 42.6242 80.5616 42.3376 80.294C42.3631 80.224 42.3885 80.1475 42.4204 80.0774C43.8853 80.2176 45.4395 79.6698 46.8025 81.0967C45.5478 81.0967 44.3694 81.1476 43.2038 81.0584H43.1975ZM45.6943 84.0652C45.6815 84.1352 45.6688 84.2117 45.6497 84.2817C44.7771 84.5174 44.535 84.4282 44.4968 83.7403C44.9363 83.8613 45.3121 83.9632 45.6879 84.0652H45.6943ZM40.2229 93.0024C40.1592 93.1235 40.0318 93.2445 39.9299 93.2445C39.3248 93.27 38.7134 93.2572 38.0382 93.2572C38.535 92.3081 39.5541 92.0405 40.1338 92.6457C40.1974 92.7158 40.2611 92.9451 40.2293 92.9961L40.2229 93.0024ZM41.0255 92.0915C40.4459 92.0405 39.8662 91.9959 39.2166 91.9386C39.6242 91.2697 40.2548 91.2697 41.0382 91.8176C41.0382 91.9068 41.0255 92.0023 41.0191 92.0915H41.0255ZM42.7834 91.6074C41.9172 91.48 40.9236 91.3271 39.8025 91.1615C40.0064 90.9576 40.1146 90.8175 40.242 90.7219C41.5924 89.6772 43.0127 88.8937 44.5159 88.4032C44.6051 88.3714 44.7134 88.3268 44.7834 88.365C44.949 88.4605 45.1019 88.6007 45.2548 88.7281C45.172 88.9192 45.1147 89.1612 45 89.2886C44.2994 90.0467 43.5796 90.7793 42.7771 91.6137L42.7834 91.6074ZM46.1274 92.6967C45.4841 93.7286 45.2166 93.7541 44.5223 92.8241C44.9682 92.3081 45.414 91.7921 45.8853 91.2443C46.293 91.7411 46.3758 92.3017 46.1274 92.703V92.6967ZM46.8471 101.029C46.8025 100.997 46.758 100.971 46.7134 100.94C46.6752 100.538 46.5796 100.131 46.6115 99.742C46.6306 99.5127 46.8344 99.3152 46.9554 99.105C47.051 99.2834 47.2484 99.4936 47.2229 99.6274C47.1401 100.111 46.9809 100.564 46.8471 101.035V101.029ZM47.1465 90.9831C46.9873 90.741 46.8917 90.5945 46.7643 90.4034C47.2548 90.0212 47.7006 89.6836 48.1401 89.3396C48.1847 89.4288 48.2293 89.518 48.2739 89.6135C47.9172 90.0467 47.5669 90.4799 47.1465 90.9895V90.9831ZM49.2038 93.34C48.949 93.563 48.6115 93.6076 48.3057 93.7286C48.2803 93.6394 48.2484 93.5503 48.2229 93.4611C48.6433 92.9069 49.0637 92.3527 49.5414 91.7348C49.8408 92.6202 49.5414 93.047 49.2102 93.3464L49.2038 93.34ZM52.4076 94.3211C52.3376 94.4039 52.0701 94.3465 52.0064 94.2319C51.707 93.684 51.949 93.3082 52.293 92.9451C52.5924 93.4101 52.828 93.8433 52.4076 94.3211ZM53.758 82.8739C53.7261 82.2433 53.6688 81.6127 53.6688 80.982C53.6624 75.44 53.6497 69.898 53.6688 64.356C53.6752 62.5978 53.7771 60.8397 53.8726 59.0879C53.8854 58.8331 54.0764 58.4955 54.2484 58.3681C54.949 57.8521 55.6561 57.3234 56.6178 57.2915C55.7325 58.7057 54.8471 59.9224 54.3949 61.7697C55.4904 59.8587 56.1592 57.5654 58.1529 57.2597C57.8535 58.3362 57.5223 59.2726 57.3376 60.2536C57.1529 61.2283 57.121 62.2602 57.0955 63.2858C57.3567 61.1773 57.949 59.3045 58.9745 57.7056C59.0955 57.5209 59.3694 57.4317 59.5605 57.4508C59.8217 57.4826 59.9873 57.6865 60 58.1579C60.0127 58.8522 59.9045 59.3809 59.5478 59.9224C58.1465 62.05 57.3822 64.6809 56.6815 67.3308C55.5605 71.5351 54.8089 75.8859 54.2166 80.2877C54.1019 81.1476 53.9809 82.0076 53.8599 82.8676C53.828 82.8676 53.7898 82.8676 53.758 82.8612V82.8739ZM55.2548 107.284C55 108.565 54.8599 109.896 54.656 111.195C54.6242 111.393 54.4777 111.559 54.3822 111.737C54.3121 111.68 54.242 111.616 54.172 111.559C54.3631 109.616 54.5478 107.679 54.7452 105.673C55.2484 106.093 55.4076 106.52 55.2548 107.284ZM55.5223 102.806C55.5032 103.462 55.4459 104.118 55.4013 104.94C55 104.233 54.5159 103.768 54.758 102.768C54.9236 102.061 54.9108 101.277 55.0064 100.532C55.0318 100.354 55.1656 100.201 55.2548 100.041C55.3567 100.226 55.535 100.405 55.5414 100.596C55.5669 101.328 55.5541 102.067 55.5287 102.806H55.5223ZM56.1019 84.5302C56.0127 84.8551 55.9172 85.199 55.7516 85.4411C55.656 85.5812 55.3694 85.6577 55.2611 85.5621C55.0955 85.4092 54.8853 85.0653 54.9045 84.8487C55.6433 77.7587 56.4841 70.7006 58.6752 64.1203C59.0828 62.8909 59.6497 61.757 60.2038 60.432C60.6561 61.6933 61.0255 62.7252 61.3949 63.7508C61.4331 63.7253 61.4713 63.6999 61.5032 63.6744C61.3185 62.6297 61.1592 61.5722 60.9363 60.5467C60.8217 60.0179 60.9108 59.744 61.2484 59.5083C61.5414 59.3045 61.8153 59.037 62.1465 58.7503C62.5414 60.2855 62.9236 61.7888 63.3057 63.2858C63.3503 63.2731 63.4013 63.2603 63.4459 63.2476C63.3631 62.0245 63.2739 60.8015 63.1783 59.4192C64.2611 60.4256 65.0382 61.5786 65.6242 63.031C65.2102 63.496 64.7898 63.9483 64.3822 64.4197C61.6815 67.5856 59.8408 71.6052 58.4459 76.0261C57.5732 78.8034 56.8726 81.6827 56.0955 84.5174L56.1019 84.5302ZM57.8599 95.9008C57.8217 95.1237 57.7834 94.4676 57.7771 93.8178C57.7771 93.6649 57.8917 93.5057 57.9554 93.3528C58.0446 93.4483 58.1592 93.5184 58.2102 93.6394C58.6497 94.6013 58.6306 94.7096 57.8599 95.9072V95.9008Z" fill="white"/>
</svg>
