<svg width="149" height="49" viewBox="0 0 149 49" fill="none" xmlns="http://www.w3.org/2000/svg">
<path d="M6.17124 1.97423C6.17124 1.97423 10.8283 4.34547 16.3914 4.10236C22.1449 3.84996 23.2308 3.10073 26.7359 1.59961V26.6365C26.7359 26.6365 24.9913 30.3919 16.2657 30.3919C9.16044 30.3919 6.41858 26.6365 6.41858 26.6365C6.41858 26.6365 6.16992 1.59961 6.16992 1.97555L6.17124 1.97423Z" fill="#333333"/>
<path d="M7.54102 4.43127C7.54102 4.43127 11.5766 6.44474 16.3993 6.23891C21.3868 6.02516 22.3267 5.38918 25.3648 4.11328V25.3748C25.3648 25.3748 23.8525 28.5639 16.2907 28.5639C10.1327 28.5639 7.75688 25.3748 7.75688 25.3748C7.75688 25.3748 7.54102 4.11328 7.54102 4.43127Z" fill="#B7D256"/>
<path d="M8.08909 0.31464C8.08909 0.31464 11.9261 2.19988 16.6149 1.99055C21.6291 1.76692 24.5006 0 24.5006 0L26.7359 1.5719C26.7359 1.5719 25.15 4.88342 16.6136 5.23837C9.48581 5.5348 6.16992 1.93985 6.16992 1.93985L8.08777 0.31464H8.08909Z" fill="#333333"/>
<path d="M12.1621 35.6477L15.2516 33.9012L15.3102 9.81658C15.3102 9.81658 7.72374 10.2883 2.98953 4.57031L0 6.24398V26.9746C0 26.9746 2.5577 33.0955 12.1621 35.6477Z" fill="#333333"/>
<path d="M0.685547 26.66C0.685547 26.66 2.79313 31.8802 11.197 34.2766V14.0983C11.197 14.0983 6.31854 14.2171 0.685547 8.45496V26.6614V26.66Z" fill="#F9CD71"/>
<path d="M20.2849 35.6477L17.1954 33.9012L17.1367 9.81658C17.1367 9.81658 24.7232 10.2883 29.4574 4.57031L32.4469 6.24398V26.9746C32.4469 26.9746 29.8892 33.0955 20.2849 35.6477Z" fill="#333333"/>
<path d="M31.7654 26.6602C31.7654 26.6602 29.6578 31.8803 21.2539 34.2768V14.0984C21.2539 14.0984 26.1324 14.2173 31.7654 8.45508V26.6615V26.6602Z" fill="#EDA1A6"/>
<path d="M4.57031 17.0961C4.57031 17.0961 9.69249 19.7117 15.813 19.4433C22.1419 19.1657 23.3367 18.3395 27.1928 16.6816V44.3014C27.1928 44.3014 25.2727 48.4446 15.6758 48.4446C7.86069 48.4446 4.84462 44.3014 4.84462 44.3014C4.84462 44.3014 4.57031 16.6816 4.57031 17.0961Z" fill="#333333"/>
<path d="M6.16992 19.7789C6.16992 19.7789 10.5679 22.0187 15.8227 21.7886C21.2576 21.5506 22.2826 20.843 25.5933 19.4238V43.0693C25.5933 43.0693 23.9446 46.6166 15.7048 46.6166C8.99464 46.6166 6.40565 43.0693 6.40565 43.0693C6.40565 43.0693 6.16992 19.4238 6.16992 19.7789Z" fill="#87BFFF"/>
<path d="M6.68038 15.2073C6.68038 15.2073 10.9005 17.3393 16.0583 17.1021C21.5735 16.849 24.7333 14.8516 24.7333 14.8516L27.1928 16.6278C27.1928 16.6278 25.4481 20.372 16.0583 20.7731C8.21677 21.1089 4.57031 17.0435 4.57031 17.0435L6.68038 15.206V15.2073Z" fill="#333333"/>
<path d="M25.5907 41.0491C25.1708 40.0975 24.5046 39.5885 23.8 39.1486C24.6689 39.3692 25.4159 39.9141 26.0503 40.7634C25.9655 40.5016 25.8225 40.3102 25.6583 40.1587C25.3179 39.845 24.9682 39.55 24.6225 39.2469C24.5881 39.2164 24.5523 39.1885 24.5232 39.1473C25.0781 39.32 25.5271 39.7706 25.9775 40.2185C25.4212 39.3466 24.6702 38.9798 23.8954 38.6701C24.1576 38.6768 24.4119 38.7499 24.653 38.8801C24.898 39.0117 25.1404 39.1566 25.3722 39.3267C25.6026 39.4968 25.8198 39.7041 26.049 39.8862C26.0225 39.8463 25.9973 39.8025 25.9682 39.7679C25.6463 39.3918 25.3748 38.9333 25.0066 38.6329C24.5669 38.2767 24.0808 38.1 23.5934 37.9205C23.4331 37.8621 23.2835 37.7478 23.1258 37.6747C22.7258 37.4886 22.3206 37.5258 21.9166 37.664C21.9351 37.5258 21.9762 37.4607 22.0927 37.4182C22.1802 37.3863 22.2702 37.3756 22.3828 37.3504C22.0159 37.1138 21.7047 37.2374 21.404 37.5285C21.3947 37.3411 21.5166 37.3158 21.5696 37.2175C21.3629 37.1138 21.1881 37.1829 21.061 37.4341C20.9616 37.6295 20.8676 37.8302 20.7815 38.0362C20.7351 38.1465 20.6835 38.1917 20.5894 38.1864C20.5047 38.181 20.3868 38.1172 20.3709 38.3326C20.3696 38.3525 20.3259 38.3644 20.302 38.3817C19.9179 38.6515 19.5338 38.9227 19.1484 39.1925C19.1285 39.2057 19.1047 39.2243 19.0862 39.2204C18.7842 39.1486 18.5087 39.2828 18.2464 39.4503C17.8835 39.6829 17.5312 39.9474 17.1736 40.1985C17.1603 40.2078 17.1471 40.2145 17.106 40.2384C17.163 39.966 17.2094 39.7188 17.2663 39.4755C17.5233 38.3711 17.8835 37.3384 18.3868 36.4041C18.6968 35.8299 19.0915 35.4419 19.5934 35.2638C19.8186 35.184 19.9948 35.3276 20.1643 35.5003C20.1895 35.5256 20.212 35.5548 20.2358 35.5801C20.2398 35.5854 20.2491 35.5814 20.2928 35.5867C20.1775 35.4086 20.0808 35.2571 19.9709 35.087C20.1325 35.0272 20.2914 35.0232 20.4477 35.0804C20.6014 35.1362 20.755 35.2026 20.902 35.2864C21.0517 35.3728 21.1934 35.487 21.3444 35.5774C21.1709 35.2266 20.8994 35.075 20.5974 34.9102C21.2093 34.7508 21.7418 34.9102 22.2451 35.3462C22.1735 35.091 22.0133 34.9847 21.302 34.6923C21.5669 34.6404 21.8358 34.6351 22.098 34.7042C22.3616 34.7733 22.6199 34.8837 22.9086 34.986C22.5192 34.683 22.1192 34.5554 21.6954 34.4411C21.9417 34.3507 22.3987 34.348 22.6848 34.4584C22.9947 34.578 23.298 34.7242 23.596 34.8557C23.1007 34.3879 22.5338 34.2138 21.9365 34.1646C22.6994 33.8722 23.4477 33.94 24.1801 34.3733C23.5484 33.839 22.8543 33.8709 22.159 33.9081C23.0106 33.6091 23.8 33.9081 24.5762 34.4145C24.4172 34.1301 23.7258 33.7181 23.2583 33.6476C22.7815 33.5759 22.302 33.528 21.8808 33.4762C22.6331 33.2861 23.4186 33.4908 24.1973 33.8058C24.2013 33.7859 24.204 33.7673 24.2079 33.7473C23.8808 33.6197 23.5589 33.4629 23.2278 33.3725C22.8954 33.2808 22.555 33.2556 22.2265 33.2024C22.6808 33.023 23.1537 33.0442 23.6437 33.1333C23.253 32.9339 22.6013 32.7838 21.1603 33.4111C21.3192 33.0429 21.661 32.8502 21.9166 33.003C21.8994 32.9206 21.8861 32.8542 21.8689 32.7744C22.2318 32.5459 22.6013 32.3425 23.0146 32.3545C22.6914 32.2202 22.3749 32.2827 22.061 32.4103C22.0543 32.4129 22.0464 32.4183 22.0398 32.4236C21.7775 32.5977 21.502 32.6907 21.2106 32.6841C21.2067 32.6841 21.2027 32.6841 21.1987 32.6841C20.9762 32.7798 20.7603 32.8502 20.5179 32.7572C20.3232 32.6827 20.1749 32.8914 20.0345 33.0575C19.963 33.1426 19.8981 33.237 19.8292 33.33C19.7471 33.1652 19.9736 32.9858 19.7855 32.8502C19.5908 32.9206 19.453 33.0854 19.4107 33.3832C19.3895 33.532 19.2862 33.4948 19.2173 33.524C19.1934 33.5347 19.1471 33.4908 19.1246 33.4536C19.0213 33.2808 18.906 33.1546 18.7431 33.1958C18.7815 33.3087 18.8345 33.4204 18.853 33.5426C18.8636 33.6171 18.8332 33.7221 18.7961 33.7845C18.7775 33.8164 18.6994 33.7952 18.653 33.7752C18.4504 33.6915 18.2491 33.5985 18.0478 33.5094C18.0438 33.524 18.0398 33.54 18.0358 33.5546C18.155 33.6543 18.2729 33.754 18.4054 33.8643C18.3365 33.9121 18.2915 33.9546 18.2425 33.9746C18.2014 33.9919 18.1511 34.0012 18.1113 33.9839C17.9431 33.9068 17.7789 33.8191 17.612 33.734L17.5948 33.7885C17.6835 33.8576 17.7723 33.9254 17.8716 34.0038C17.8464 34.0304 17.8319 34.0583 17.8146 34.0623C17.6676 34.0889 17.518 34.1394 17.3723 34.1274C17.1206 34.1075 16.8888 34.1952 16.657 34.3029C16.6041 34.3281 16.5511 34.3534 16.4809 34.3879C16.4915 34.15 16.4902 33.9321 16.5114 33.7181C16.5657 33.1904 16.616 32.6601 16.6955 32.1378C16.8796 30.9364 17.3021 29.917 17.955 29.0823C18.0782 28.9242 18.204 28.7687 18.3312 28.6065C18.3855 28.6756 18.4319 28.7341 18.4915 28.8099C18.4915 28.7541 18.4915 28.7235 18.4915 28.6929C18.4941 28.6251 18.4848 28.5095 18.5034 28.5002C18.5815 28.4617 18.6769 28.4125 18.7484 28.4444C18.8597 28.4922 18.9564 28.6039 19.0703 28.6982C19.0199 28.5959 18.9762 28.5069 18.9299 28.4125C19.0429 28.385 19.2398 28.5002 19.5206 28.758C19.4464 28.6344 19.3722 28.5122 19.2954 28.3846C19.461 28.3381 19.4967 28.3567 20.102 28.7541C20.0464 28.6823 19.9948 28.6052 19.9365 28.5387C19.8782 28.4723 19.8133 28.4165 19.7537 28.3487C20.0742 28.4311 20.3378 28.6743 20.6 28.9242C20.404 28.5334 20.0888 28.3859 19.8014 28.1772C20.2491 28.1998 20.6265 28.4736 20.9894 28.8046L21.008 28.7713C20.9285 28.681 20.8543 28.5826 20.7696 28.5042C20.6848 28.4245 20.5921 28.3593 20.4981 28.2982C20.404 28.2371 20.306 28.1879 20.212 28.1201C20.6477 28.1161 21.049 28.2849 21.4239 28.5866C21.2226 28.2809 20.7656 28.0948 20.0901 28.0244C20.3577 27.9008 20.6345 27.8955 20.906 27.9606C21.1775 28.0257 21.4424 28.144 21.7113 28.2397C21.4027 27.9686 21.0504 27.9061 20.7007 27.8277C21.1007 27.7014 21.4663 27.9114 21.8411 28.0669C21.7285 27.9261 21.4848 27.7958 21.1603 27.7227C20.9219 27.6695 20.6795 27.635 20.4212 27.5885C20.7563 27.4077 21.0716 27.4529 21.3868 27.627C21.3921 27.6071 21.3974 27.5871 21.4014 27.5685C21.3537 27.5327 21.3073 27.4888 21.257 27.4622C20.9312 27.2868 20.5934 27.2416 20.2451 27.2695C20.0332 27.2868 19.8212 27.2708 19.6093 27.2695C19.5948 27.2695 19.5775 27.2655 19.5656 27.2562C19.2901 27.0276 19.061 27.2017 18.8371 27.417C18.812 27.441 18.7881 27.4675 18.763 27.4928C18.7577 27.4981 18.7484 27.4981 18.71 27.5087C18.7603 27.3851 18.8001 27.2908 18.8464 27.1778C18.5974 27.2549 18.4716 27.5034 18.359 27.7825C18.2928 27.6071 18.2968 27.3652 18.0968 27.3373V27.8556C17.9444 27.7573 17.8027 27.6656 17.661 27.5739C17.6504 27.5925 17.6398 27.6111 17.6305 27.6297C17.6637 27.6656 17.6968 27.7001 17.7286 27.7373C17.7603 27.7745 17.7988 27.8078 17.8226 27.8556C17.8981 28.0045 17.9935 28.148 18.0332 28.3155C18.0729 28.4829 18.0928 28.6703 17.9458 28.8205C17.4199 29.3588 17.0663 30.0858 16.816 30.9111C16.5789 31.6886 16.4385 32.5033 16.3657 33.3406C16.3577 33.439 16.3445 33.5373 16.3153 33.6343C16.3153 33.5785 16.3153 33.5227 16.3153 33.4669C16.3061 31.2979 16.2981 29.1289 16.2888 26.9598C16.2888 26.6993 16.2888 26.4375 16.2782 26.177C16.2716 26.0135 16.3153 25.8886 16.3961 25.7796C16.6955 25.3743 17.0544 25.0912 17.412 24.8028C17.4517 24.7709 17.4901 24.739 17.5299 24.7071C17.5246 24.6938 17.5206 24.6805 17.5153 24.6659C17.3219 24.7975 17.1286 24.929 16.91 25.0779C17.11 24.7483 17.3365 24.5237 17.567 24.2951L17.0014 24.7164C17.1723 24.4014 17.4186 24.2379 17.657 24.0558C17.3511 24.1569 17.0835 24.3708 16.8107 24.5968C16.8862 24.4665 16.959 24.331 17.0385 24.206C17.1246 24.0705 17.2147 23.9389 17.3074 23.8113C17.3974 23.6877 17.4928 23.5734 17.5802 23.4445C17.2186 23.6731 16.9604 24.0784 16.6597 24.4851C16.7498 23.899 16.9246 23.4086 17.1074 22.9208C17.0981 22.9129 17.0888 22.9036 17.0796 22.8956C17.0014 23.0498 16.9166 23.1986 16.8464 23.3594C16.7749 23.5216 16.714 23.693 16.6544 23.8631C16.5935 24.0386 16.5392 24.218 16.4716 24.3948C16.4557 23.7223 16.4796 23.0471 16.3392 22.3945C16.3286 22.3945 16.3167 22.3945 16.3061 22.3945V24.012C16.2928 24.0133 16.2796 24.0146 16.2663 24.016C16.2014 23.5056 16.1365 22.9953 16.0729 22.4849L16.0345 22.4889V24.0067C15.8888 23.4485 15.8253 22.8451 15.4147 22.5022C15.6597 22.9713 15.7869 23.4963 15.8067 24.0758C15.6743 23.5814 15.4941 23.1468 15.1167 22.9394C15.3855 23.2504 15.6557 23.5588 15.6677 24.1037C15.5405 23.79 15.4345 23.4538 15.1935 23.2597C15.2677 23.3966 15.3405 23.5349 15.4147 23.6718C15.4107 23.6784 15.4067 23.685 15.4028 23.6917C15.3206 23.6345 15.2385 23.5787 15.1551 23.5216C15.2081 23.6478 15.3657 23.6452 15.3418 23.8645C15.4425 23.8512 15.4743 23.9548 15.5061 24.0652C15.7021 24.747 15.9008 25.4274 16.0968 26.1092C16.1061 26.1425 16.1127 26.1797 16.1127 26.2156C16.0981 28.6079 16.0835 31.0002 16.0584 33.3991C15.8319 32.0435 15.5432 30.733 14.7445 29.7774C14.7471 29.7615 14.7498 29.7455 14.7538 29.7296C14.8041 29.7256 14.8531 29.7216 14.9074 29.7163C14.9326 29.5063 15.0014 29.4651 15.2054 29.5661C15.1339 29.4106 15.1167 29.404 14.6822 29.3761C14.6756 29.2724 14.6663 29.1647 14.6624 29.0558C14.6597 28.9747 14.6677 28.8909 14.5869 28.871C14.5074 28.8524 14.5048 28.9401 14.4875 29.0066C14.4743 29.0558 14.461 29.1049 14.4425 29.1767C14.2637 28.9242 14.061 28.7713 13.8067 28.774C13.8942 28.8604 13.9789 28.9441 14.0637 29.0265C14.0597 29.0318 14.0558 29.0371 14.0518 29.0425C13.8611 28.9773 13.6717 28.9016 13.4796 28.8524C13.2995 28.8072 13.1273 28.8418 12.9591 28.9667C12.8637 29.0371 12.7392 29.0358 12.6266 29.0584C12.2637 29.1328 11.9074 29.2405 11.5829 29.4983C11.624 29.4904 11.6651 29.4837 11.7154 29.4744C11.5763 29.6538 11.3406 29.6512 11.2995 29.9475C11.4492 29.8146 11.6002 29.6738 11.7564 29.5462C11.8306 29.4864 11.9141 29.4505 12.0028 29.4279C11.8452 29.5821 11.6862 29.7376 11.5286 29.8917C11.5313 29.897 11.5339 29.901 11.5366 29.9063C11.7856 29.7243 12.0359 29.5409 12.2849 29.3588C12.2902 29.3707 12.2955 29.3827 12.3008 29.3947C12.1141 29.5914 11.8796 29.7136 11.7657 30.0326C12.0531 29.5581 12.4544 29.4159 12.8637 29.2937C12.6783 29.4319 12.5088 29.59 12.3856 29.8293C12.8399 29.4013 13.0558 29.2817 13.3207 29.3309C13.175 29.4704 13.0385 29.6007 12.9008 29.7309C12.9061 29.7442 12.9127 29.7588 12.918 29.7721C13.1697 29.5767 13.4134 29.3415 13.7154 29.3814C13.6372 29.5608 13.5617 29.7362 13.4849 29.9117C13.4955 29.921 13.5061 29.9303 13.5167 29.9409C13.6293 29.812 13.7418 29.6817 13.8558 29.5528C13.9591 29.4345 14.0703 29.4026 14.1988 29.5036C14.2014 29.602 14.2054 29.7043 14.2094 29.8306C14.2637 29.7163 14.3061 29.6246 14.3538 29.5249C14.7365 29.8718 15.02 30.3091 15.2451 30.8247C15.5683 31.561 15.7445 32.3717 15.8888 33.2024C16.1193 34.5261 16.0703 35.8738 16.0915 37.2148C16.1034 37.9126 16.0941 38.6103 16.0941 39.336C15.9657 39.2616 15.8478 39.1951 15.7326 39.122C15.7127 39.1087 15.6994 39.0662 15.6902 39.033C15.3816 38.0096 15.073 36.9862 14.7644 35.9615C14.7591 35.9429 14.7604 35.9216 14.7564 35.8911H14.918L14.9299 35.8579C14.8703 35.8193 14.8094 35.7808 14.7498 35.7396C14.7114 35.713 14.661 35.6917 14.6385 35.6479C14.3048 34.9754 13.9736 34.3002 13.6319 33.6024C14.0266 32.922 14.575 32.6096 15.2266 32.603C15.2266 32.5884 15.2292 32.5724 15.2306 32.5578C15.1418 32.5432 15.0518 32.5326 14.963 32.51C14.9259 32.4993 14.8942 32.4581 14.8584 32.4329C14.7855 32.3837 14.714 32.3279 14.6385 32.2933C14.5975 32.2734 14.5445 32.2761 14.5021 32.2933C14.3498 32.3505 14.2319 32.3173 14.118 32.1418C14.0293 32.0036 13.8902 31.9996 13.767 32.0913C13.6836 32.1525 13.6041 32.2255 13.514 32.3C13.4968 32.1378 13.465 31.985 13.326 31.9371C13.22 31.9013 13.1008 31.9544 13.0359 32.0647C12.9034 31.9664 12.775 31.8694 12.6452 31.7777C12.5154 31.686 12.3922 31.7272 12.2823 31.8388C12.2227 31.8999 12.171 31.9092 12.1048 31.864C11.8849 31.7139 11.6518 31.6913 11.4121 31.7391C11.3869 31.7444 11.3604 31.7338 11.3339 31.7298C11.1339 31.6966 10.9339 31.658 10.7339 31.6301C10.5671 31.6062 10.3988 31.5929 10.232 31.577C9.64786 31.5198 9.06773 31.5464 8.5088 31.8162C8.33132 31.9026 8.16576 32.0368 8.00285 32.1711C8.21079 32.1073 8.3843 31.8853 8.61741 31.9491C8.44522 32.0621 8.27304 32.175 8.10218 32.288C8.10483 32.2986 8.1088 32.3079 8.11145 32.3186C8.28629 32.2295 8.46112 32.1405 8.63463 32.0501C8.63727 32.0594 8.63992 32.0687 8.64257 32.0794C8.53661 32.1711 8.42933 32.2628 8.32337 32.3545C8.53264 32.2442 8.71807 32.0488 8.97237 32.0634C8.92999 32.1431 8.89423 32.2083 8.84522 32.3C9.07303 32.1684 9.25316 31.9052 9.51409 32.0182C9.27038 32.1538 9.02667 32.2893 8.78297 32.4249C8.78827 32.4435 8.79224 32.4634 8.79754 32.4821C9.19488 32.2003 9.61607 32.098 10.0624 32.1365C9.99487 32.3731 9.82137 32.3452 9.69951 32.4475C9.74455 32.4382 9.7909 32.4289 9.84918 32.4156C9.83196 32.4821 9.81872 32.5326 9.7962 32.615C9.83196 32.5724 9.85315 32.5498 9.87302 32.5259C10.0121 32.3638 10.1591 32.2601 10.3538 32.284C10.5419 32.3079 10.7326 32.2893 10.9233 32.2893C10.9021 32.5658 10.7419 32.502 10.6187 32.5684H10.7882C10.7909 32.6096 10.7949 32.6522 10.7975 32.6987C11.0823 32.4196 11.3723 32.4289 11.6809 32.6668C11.5551 32.7226 11.4412 32.7744 11.326 32.825C11.3273 32.8436 11.3286 32.8622 11.33 32.8808C11.7101 32.6947 12.073 32.6947 12.416 33.0748C12.3432 33.1173 12.273 33.1599 12.1922 33.2064C12.3088 33.1984 12.416 33.2037 12.5207 33.1825C12.7101 33.1453 12.8597 33.2529 13.0081 33.3964C13.4611 33.8377 13.8054 34.4211 14.1207 35.0418C14.2213 35.2412 14.318 35.4445 14.4279 35.6691C14.3048 35.6837 14.1948 35.6837 14.0889 35.7143C13.9339 35.7582 13.7816 35.8233 13.6279 35.8791C13.5154 35.919 13.4028 35.9642 13.2875 35.9894C13.2611 35.9947 13.216 35.9429 13.1975 35.9004C12.9604 35.3621 12.5975 35.0857 12.1684 34.9448C12.1511 34.9395 12.1339 34.9448 12.1088 34.9448C12.2213 35.0418 12.326 35.1309 12.4306 35.2212C12.4253 35.2398 12.42 35.2598 12.4147 35.2784C12.065 34.9767 11.6836 34.9049 11.2677 34.9554C11.5525 35.0378 11.8306 35.0644 12.0677 35.2837C11.6094 35.184 11.1564 35.1907 10.7048 35.3475C10.9922 35.3462 11.2836 35.2638 11.5525 35.3914C11.2704 35.4618 10.979 35.5362 10.6876 35.6053C10.6598 35.612 10.628 35.596 10.6002 35.5814C10.4081 35.4724 10.2333 35.515 10.073 35.6891C10.0121 35.7555 9.96044 35.7781 9.87567 35.7515C9.72865 35.7063 9.58031 35.7462 9.44256 35.8459C9.4015 35.8765 9.34985 35.8898 9.30217 35.8951C9.12469 35.911 8.94588 35.907 8.7684 35.9336C8.52602 35.9695 8.28099 35.9987 8.04655 36.0825C7.75252 36.1861 7.46643 36.3337 7.18166 36.4772C6.66511 36.7364 6.14724 36.9889 5.6691 37.373C5.60685 37.4235 5.5393 37.4673 5.48102 37.5258C5.45188 37.5551 5.43731 37.6109 5.40023 37.6866C5.67837 37.4806 5.92473 37.2999 6.16976 37.1191C6.17638 37.1351 6.18432 37.151 6.19095 37.167C6.13267 37.3517 6.07969 37.5205 5.91545 37.6016C5.66115 37.7265 5.44526 37.9524 5.25586 38.2276C5.83334 37.7398 6.43863 37.3384 7.09292 37.0939C6.55386 37.454 5.98565 37.7518 5.57771 38.403C6.24525 37.684 6.96445 37.1284 7.83066 37.0341C7.55914 37.2068 7.2863 37.3743 7.01743 37.5537C6.74458 37.7358 6.48498 37.9511 6.27174 38.2608C6.93398 37.6521 7.63861 37.1922 8.45714 37.0168C8.21874 37.2161 7.99887 37.3876 7.78828 37.5777C7.57769 37.769 7.39358 38.0043 7.27173 38.3219C7.73 37.7292 8.22801 37.2348 8.87171 37.0992C8.60549 37.2746 8.39092 37.5258 8.25715 37.898C8.45979 37.6135 8.67436 37.3557 8.9578 37.1962C8.88098 37.3597 8.81078 37.5072 8.74191 37.6547C8.74986 37.664 8.7578 37.6733 8.76575 37.6826C9.02667 37.2906 9.26508 36.8427 9.71541 36.9676C9.44786 37.3291 9.17634 37.6946 8.90615 38.0614C8.91674 38.0787 8.92866 38.096 8.93926 38.1133C9.23727 37.7159 9.5472 37.3371 9.92733 37.0939C9.66773 37.4899 9.37369 37.8435 9.18296 38.3193C9.36442 38.0707 9.54058 37.8116 9.7313 37.5763C9.88494 37.3863 10.0571 37.2241 10.2214 37.0513C10.3498 36.9158 10.4916 36.8653 10.6505 36.945C10.3829 37.3756 10.1141 37.8089 9.84388 38.2422C9.85448 38.2555 9.86507 38.2701 9.87567 38.2834C10.2545 37.7079 10.669 37.1962 11.2081 36.844C11.0929 37.151 10.9869 37.4182 10.8916 37.6933C10.7988 37.9631 10.7194 38.2408 10.6545 38.5266C10.7922 38.2555 10.922 37.9737 11.0717 37.7145C11.2041 37.482 11.3525 37.264 11.5048 37.054C11.616 36.8998 11.6227 36.9105 11.775 37.0155C11.6081 37.4487 11.4704 37.898 11.4611 38.403C11.5803 37.9285 11.7525 37.4979 11.9896 37.1205C12.1988 37.276 12.1962 37.2746 12.1737 37.5816C12.1604 37.7664 12.1564 37.9524 12.1631 38.1438C12.2266 37.8887 12.2915 37.6335 12.3578 37.3703C12.4597 37.4673 12.5591 37.5497 12.6465 37.6507C12.6783 37.6866 12.6915 37.7637 12.6982 37.8249C12.7061 37.9033 12.7008 37.9843 12.7154 38.0707C12.7366 37.9883 12.7578 37.9046 12.7829 37.8023C13.1472 38.1053 13.4372 38.5133 13.7538 38.924C13.6796 38.9599 13.6187 38.9891 13.5577 39.0183C13.6995 38.9984 13.8518 38.9399 13.9087 39.2337C13.5803 39.2828 13.2425 39.3054 12.9313 39.5035C13.3061 39.4463 13.6783 39.336 14.061 39.4423C13.5471 39.6284 13.0279 39.7759 12.6001 40.2118C12.8385 40.1148 13.0809 39.9859 13.3326 39.9221C13.6054 39.853 13.8875 39.841 14.1657 39.8131C14.2014 39.8091 14.2385 39.8543 14.273 39.8955C13.6915 40.1786 13.0955 40.3899 12.6386 41.0053C13.2041 40.5494 13.812 40.3009 14.4769 40.3089C14.4425 40.3368 14.4094 40.3713 14.3736 40.3926C14.0372 40.5866 13.6942 40.782 13.4332 41.1369C13.2491 41.3881 13.0505 41.509 12.8054 41.5316C12.7697 41.5342 12.7339 41.5608 12.7021 41.5941C12.828 41.5808 12.9525 41.5675 13.114 41.5502C13.0253 41.6884 13.0041 41.8306 12.8624 41.8572C12.6491 41.8971 12.4412 41.9901 12.2346 42.0752C12.5048 42.03 12.775 41.9848 13.0452 41.9396C13.0452 41.9463 13.0452 41.9529 13.0438 41.9595L11.828 42.5908C11.8333 42.6095 11.8386 42.6294 11.8425 42.648C12.0293 42.5536 12.2134 42.4513 12.4015 42.3689C12.5882 42.2865 12.7803 42.224 12.9763 42.1722C12.2902 42.5443 11.7021 43.0906 11.2783 43.9412C11.7538 43.3325 12.269 42.8048 12.877 42.4699C12.3366 42.9869 11.8147 43.5358 11.416 44.1963C11.8915 43.7352 12.3962 43.2447 12.9021 42.7543C12.9114 42.7703 12.9207 42.7849 12.9299 42.8008C12.4518 43.3962 12.0081 44.0302 11.7167 44.8383C12.0836 44.1804 12.5035 43.5996 12.9895 43.1052C12.5909 43.8282 12.1737 44.5326 11.8584 45.338C12.0915 44.9592 12.3207 44.5751 12.5604 44.203C12.8028 43.8255 13.0558 43.46 13.3246 43.1118C13.0346 43.896 12.7445 44.6801 12.4544 45.4643C12.4637 45.4709 12.473 45.4789 12.4823 45.4855C12.8955 44.712 13.3074 43.9398 13.7207 43.1663C13.4955 44.0515 13.2465 44.922 13.1207 45.8484C13.4319 44.9087 13.7313 43.9624 14.167 43.1118C14.02 44.0369 13.869 44.9579 13.8332 45.8789C14.069 44.9552 14.3101 44.0103 14.5524 43.064L14.5855 43.0746C14.6504 43.9465 14.5922 44.8343 14.7485 45.7008C14.6597 44.9167 14.9988 44.3372 15.2187 43.7019C15.2319 43.6993 15.2451 43.6966 15.2571 43.694C15.3365 43.9983 15.4226 44.3 15.4941 44.607C15.6478 45.2622 15.7498 45.9361 15.7855 46.6205C15.7882 46.6803 15.7908 46.7402 15.7935 46.8C16.0915 46.8119 16.3908 46.8279 16.6888 46.8451C16.7074 46.5567 16.7339 46.271 16.767 45.9866C16.8491 45.2835 16.963 44.5884 17.0557 43.888C17.0743 43.7524 17.1219 43.6807 17.216 43.6421C17.118 43.4188 17.261 43.2594 17.2729 43.0573C17.3471 43.0853 17.408 43.1092 17.4676 43.1318C17.4729 43.1185 17.4796 43.1052 17.4848 43.0919C17.4398 43.0347 17.3935 42.9789 17.3378 42.9085C17.3723 42.7636 17.4107 42.6068 17.4478 42.45H17.4703C17.6226 43.4188 17.7749 44.3891 17.9312 45.3858C18.0093 45.0815 18.0292 44.0874 17.9948 43.6594C17.9497 43.0906 17.9233 42.5177 17.9021 41.9396C18.3338 42.8925 18.6054 43.9465 18.8875 44.9924C18.8981 44.9924 18.91 44.9911 18.9206 44.9898C18.9206 44.7638 18.9325 44.5366 18.9179 44.3133C18.8583 43.355 18.6279 42.4606 18.3643 41.5808C18.359 41.5622 18.355 41.5422 18.3471 41.5143C18.5127 41.6685 18.9484 42.4819 19.1948 43.0653C19.4292 43.6222 19.6544 44.187 19.914 44.7426C19.8703 44.4396 19.8411 44.1299 19.7789 43.8335C19.7153 43.5305 19.6318 43.2328 19.5338 42.9484C19.4371 42.6666 19.3193 42.3981 19.1961 42.135C19.0716 41.8678 18.9299 41.6153 18.7762 41.3163C18.8517 41.3615 18.9021 41.3867 18.9484 41.4186C19.2967 41.6605 19.5868 42.0074 19.8477 42.4008C20.159 42.8713 20.4583 43.3564 20.7722 43.8508C20.7696 43.8043 20.7709 43.7617 20.763 43.7232C20.6212 42.9577 20.2848 42.3649 19.8703 41.8532C19.5683 41.4798 19.2424 41.1422 18.9232 40.7847C19.7497 41.2166 20.4385 41.9423 21.1153 42.7158C21.0318 42.5722 20.955 42.4194 20.8649 42.2852C20.5418 41.804 20.1603 41.4173 19.7722 41.0438C19.6159 40.8936 19.4583 40.7461 19.2756 40.5733C19.9683 40.7155 20.4848 41.2365 20.9894 41.8094C20.9484 41.6286 20.8106 41.4146 20.6093 41.2086C20.1868 40.778 19.706 40.5082 19.2199 40.2517C19.1868 40.2344 19.1537 40.2145 19.1246 40.1773C19.8106 40.1294 20.4239 40.5242 21.0596 40.7847C20.4239 40.2304 19.7153 39.9739 18.9617 39.8131C19.2981 39.6496 19.5656 39.6589 20.5722 39.9567C20.3444 39.7374 20.1073 39.6576 19.8676 39.5991C19.6252 39.5407 19.3789 39.4968 19.1179 39.4436C19.2888 39.114 19.5179 39.336 19.7391 39.2682C19.6212 39.231 19.5299 39.2031 19.4146 39.1659C19.7047 38.8815 20.0173 38.7406 20.3325 38.5678V38.7818C20.4159 38.6369 20.4795 38.5266 20.5431 38.4163C20.5841 38.3432 20.7841 38.2847 20.8279 38.3432C20.8517 38.3751 20.8623 38.4375 20.8636 38.4867C20.8676 38.6821 20.8663 38.8788 20.8663 39.0742C20.8663 39.1326 20.8663 39.1911 20.8861 39.2602C20.9563 39.0077 21.0265 38.7539 21.102 38.4801C21.3749 38.9227 21.4835 39.4264 21.5166 39.9899C21.5537 39.8144 21.6053 39.6417 21.6225 39.4609C21.6411 39.2815 21.6265 39.0954 21.6265 38.9067C21.7338 38.9346 21.8278 39.0263 21.8795 39.1619C22.0252 39.5433 22.1576 39.9354 22.2941 40.3235C22.3153 40.382 22.3298 40.4444 22.355 40.5016C22.3722 39.9673 22.2755 39.4769 22.0557 39.033C22.0649 39.0183 22.0742 39.0051 22.0848 38.9904C22.1735 39.0768 22.2795 39.1419 22.3457 39.2536C22.5669 39.6271 22.7722 40.0165 22.9841 40.4006C23.0119 40.4497 23.0371 40.5029 23.0715 40.5454C23.0225 40.0417 22.8305 39.643 22.5947 39.2695C22.8318 39.3639 23.0186 39.5672 23.1656 39.8224C23.4066 40.2411 23.6318 40.677 23.8649 41.1063C23.8729 41.1222 23.8834 41.1355 23.9046 41.1674C23.7815 40.4085 23.4477 39.861 23.0768 39.3373C23.2225 39.3533 23.6199 39.752 23.8543 40.1387C24.0649 40.4856 24.2623 40.8498 24.4689 41.2113C24.2795 40.3793 23.8795 39.7786 23.3921 39.2655C24.1272 39.639 24.6053 40.4152 25.0344 41.2724C24.8516 40.5228 24.5179 39.9407 24.0358 39.5167C24.6689 39.8025 25.1112 40.4564 25.5894 41.0398L25.5907 41.0491ZM20.6967 32.8861C20.7034 32.9007 20.71 32.9153 20.7153 32.9313C20.5815 33.0589 20.4491 33.1851 20.2928 33.3327C20.3378 33.0057 20.502 32.8422 20.6967 32.8861ZM19.4676 27.2868C19.3312 27.3732 19.2186 27.4449 19.0835 27.5313C19.163 27.2642 19.3153 27.1618 19.4676 27.2868ZM13.1432 28.9906C13.2015 28.8511 13.3948 28.8617 13.4981 29.0305C13.367 29.0159 13.2571 29.0026 13.1432 28.9906ZM14.8081 32.4967C14.5935 32.5897 14.375 32.6827 14.1644 32.7731C14.3087 32.4116 14.6783 32.2535 14.8081 32.4967ZM14.0001 32.1883C14.0505 32.2761 14.0836 32.3345 14.1167 32.3917C14.0266 32.4488 13.9511 32.4953 13.8756 32.5432C13.8664 32.5365 13.8584 32.5299 13.8491 32.5233C13.8942 32.4222 13.9405 32.3199 13.9988 32.187L14.0001 32.1883ZM12.2796 37.066C12.224 37.0221 12.175 36.9849 12.1286 36.949C12.22 36.8254 12.3114 36.7045 12.4041 36.5809C12.3657 36.731 12.3246 36.8919 12.2809 37.0673L12.2796 37.066ZM14.5524 36.0479C14.461 35.9908 14.3869 35.9442 14.2955 35.8871C14.4425 35.818 14.4809 35.8419 14.5524 36.0479ZM13.7842 36.1037C14.0054 36.3204 14.2266 36.5383 14.4571 36.7643C14.3683 36.4293 14.1789 36.2114 13.9869 35.9482C14.2412 35.9575 14.4372 36.0652 14.62 36.2313C14.6346 36.2446 14.6425 36.2738 14.6491 36.2978C14.8968 37.155 15.1445 38.0123 15.3895 38.8695C15.3988 38.9027 15.3975 38.9413 15.4041 38.9931C15.3193 38.9758 15.2398 38.9678 15.1643 38.9426C15.1326 38.932 15.0942 38.8908 15.0809 38.8496C14.7524 37.8541 14.2769 36.9982 13.7736 36.1649C13.7697 36.1582 13.7683 36.1463 13.767 36.137C13.7723 36.1263 13.7776 36.1144 13.7842 36.1037ZM12.7326 37.4514C12.6319 37.361 12.5485 37.2866 12.4531 37.2015C12.5684 36.9503 12.6796 36.7071 12.7909 36.4652C12.8001 36.4679 12.8094 36.4705 12.82 36.4732C12.7922 36.7895 12.7644 37.1045 12.7339 37.4514H12.7326ZM13.8346 38.7167C13.5657 38.306 13.265 37.9418 12.9286 37.6401C12.873 37.5909 12.8518 37.5404 12.8743 37.4434C12.9511 37.0979 13.0213 36.7497 13.0942 36.4028C13.1034 36.4068 13.1114 36.4094 13.1207 36.4134C13.2134 36.8121 13.3048 37.2108 13.3975 37.6095C13.4041 37.6056 13.4107 37.6016 13.4173 37.5976C13.4173 37.365 13.4147 37.1324 13.4173 36.9012C13.4213 36.6699 13.4306 36.4387 13.4385 36.2061C13.4505 36.1981 13.4637 36.1888 13.4756 36.1808C13.6518 36.4958 13.8293 36.8095 14.0094 37.1311C14.0187 37.0939 14.0306 37.0487 14.0478 36.9836C14.3683 37.5697 14.6677 38.1518 14.869 38.8575C14.7749 38.8442 14.7008 38.8256 14.6279 38.827C14.4557 38.827 14.2822 38.8323 14.1101 38.8482C14.0014 38.8589 13.918 38.8442 13.8359 38.718L13.8346 38.7167ZM14.2385 39.2137C14.1776 39.2084 14.1193 39.11 14.0597 39.0542C14.065 39.0396 14.0703 39.0237 14.0769 39.009C14.3816 39.0383 14.7048 38.924 14.9882 39.2217C14.7273 39.2217 14.4822 39.2323 14.2399 39.2137H14.2385ZM14.7577 39.841C14.7551 39.8556 14.7524 39.8716 14.7485 39.8862C14.567 39.9354 14.5167 39.9168 14.5087 39.7732C14.6001 39.7985 14.6783 39.8198 14.7564 39.841H14.7577ZM13.62 41.7057C13.6068 41.7309 13.5803 41.7562 13.5591 41.7562C13.4332 41.7615 13.3061 41.7589 13.1657 41.7589C13.269 41.5608 13.4809 41.505 13.6015 41.6313C13.6147 41.6459 13.6279 41.6937 13.6213 41.7044L13.62 41.7057ZM13.7869 41.5156C13.6664 41.505 13.5458 41.4957 13.4107 41.4837C13.4955 41.3442 13.6266 41.3442 13.7895 41.4585C13.7895 41.4771 13.7869 41.497 13.7856 41.5156H13.7869ZM14.1524 41.4146C13.9723 41.3881 13.7657 41.3562 13.5326 41.3216C13.575 41.2791 13.5975 41.2498 13.624 41.2299C13.9048 41.0119 14.2001 40.8485 14.5127 40.7461C14.5312 40.7395 14.5538 40.7302 14.5683 40.7381C14.6028 40.7581 14.6346 40.7873 14.6663 40.8139C14.6491 40.8538 14.6372 40.9043 14.6134 40.9309C14.4677 41.089 14.318 41.2419 14.1511 41.416L14.1524 41.4146ZM14.8478 41.6419C14.714 41.8572 14.6584 41.8625 14.514 41.6685C14.6067 41.5608 14.6995 41.4532 14.7975 41.3389C14.8822 41.4425 14.8995 41.5595 14.8478 41.6432V41.6419ZM14.9975 43.3803C14.9882 43.3737 14.9789 43.3683 14.9696 43.3617C14.9617 43.278 14.9418 43.1929 14.9485 43.1118C14.9524 43.064 14.9948 43.0228 15.02 42.9789C15.0398 43.0161 15.0809 43.06 15.0756 43.0879C15.0584 43.1889 15.0253 43.2833 14.9975 43.3816V43.3803ZM15.0597 41.2844C15.0266 41.2339 15.0067 41.2033 14.9802 41.1634C15.0822 41.0837 15.1749 41.0133 15.2663 40.9415C15.2756 40.9601 15.2849 40.9787 15.2941 40.9986C15.22 41.089 15.1471 41.1794 15.0597 41.2857V41.2844ZM15.4875 41.7761C15.4345 41.8227 15.3643 41.832 15.3008 41.8572C15.2955 41.8386 15.2888 41.82 15.2836 41.8014C15.371 41.6858 15.4584 41.5701 15.5577 41.4412C15.62 41.626 15.5577 41.715 15.4888 41.7775L15.4875 41.7761ZM16.1537 41.9808C16.1392 41.9981 16.0835 41.9861 16.0703 41.9622C16.008 41.8479 16.0584 41.7695 16.1299 41.6937C16.1922 41.7908 16.2412 41.8811 16.1537 41.9808ZM16.4345 39.5925C16.4279 39.4609 16.416 39.3293 16.416 39.1978C16.4147 38.0415 16.412 36.8852 16.416 35.7289C16.4173 35.3621 16.4385 34.9953 16.4584 34.6298C16.461 34.5766 16.5008 34.5062 16.5365 34.4796C16.6822 34.372 16.8292 34.2617 17.0292 34.255C16.8451 34.5501 16.661 34.8039 16.567 35.1893C16.7948 34.7906 16.9339 34.3122 17.3484 34.2484C17.2862 34.473 17.2173 34.6684 17.1789 34.873C17.1405 35.0764 17.1339 35.2917 17.1286 35.5057C17.1829 35.0657 17.306 34.675 17.5193 34.3414C17.5445 34.3029 17.6014 34.2843 17.6411 34.2882C17.6954 34.2949 17.7299 34.3374 17.7325 34.4358C17.7352 34.5806 17.7127 34.6909 17.6385 34.8039C17.3471 35.2478 17.1882 35.7967 17.0425 36.3496C16.8094 37.2268 16.6531 38.1345 16.5299 39.0529C16.5061 39.2323 16.4809 39.4117 16.4557 39.5912C16.4491 39.5912 16.4412 39.5912 16.4345 39.5898V39.5925ZM16.7458 44.6854C16.6928 44.9526 16.6637 45.2303 16.6213 45.5015C16.6147 45.5427 16.5842 45.5772 16.5643 45.6144C16.5498 45.6025 16.5352 45.5892 16.5206 45.5772C16.5604 45.1719 16.5988 44.7678 16.6398 44.3492C16.7445 44.4369 16.7776 44.5259 16.7458 44.6854ZM16.8014 43.7511C16.7974 43.888 16.7855 44.0249 16.7762 44.1963C16.6928 44.0488 16.5921 43.9518 16.6425 43.7431C16.6769 43.5956 16.6743 43.4321 16.6941 43.2766C16.6994 43.2394 16.7272 43.2075 16.7458 43.1743C16.767 43.2128 16.8041 43.2501 16.8054 43.2899C16.8107 43.4428 16.808 43.5969 16.8027 43.7511H16.8014ZM16.9219 39.9381C16.9034 40.0058 16.8835 40.0776 16.8491 40.1281C16.8292 40.1573 16.7696 40.1733 16.7471 40.1534C16.7127 40.1215 16.669 40.0497 16.6729 40.0045C16.8266 38.5253 17.0014 37.0527 17.457 35.6798C17.5418 35.4233 17.6597 35.1867 17.7749 34.9102C17.869 35.1734 17.9458 35.3887 18.0226 35.6027C18.0305 35.5974 18.0385 35.592 18.0451 35.5867C18.0067 35.3688 17.9736 35.1481 17.9272 34.9342C17.9034 34.8238 17.9219 34.7667 17.9921 34.7175C18.0531 34.675 18.11 34.6192 18.1789 34.5594C18.261 34.8797 18.3405 35.1933 18.4199 35.5057C18.4292 35.503 18.4398 35.5003 18.4491 35.4977C18.4319 35.2425 18.4133 34.9873 18.3934 34.6989C18.6186 34.9089 18.7802 35.1495 18.9021 35.4525C18.816 35.5495 18.7285 35.6439 18.6438 35.7422C18.0822 36.4028 17.6994 37.2414 17.4094 38.1638C17.2279 38.7432 17.0822 39.344 16.9206 39.9354L16.9219 39.9381ZM17.2875 42.3104C17.2796 42.1483 17.2716 42.0114 17.2703 41.8758C17.2703 41.8439 17.2941 41.8107 17.3074 41.7788C17.3259 41.7987 17.3498 41.8133 17.3603 41.8386C17.4517 42.0393 17.4478 42.0619 17.2875 42.3117V42.3104Z" fill="#333333"/>
<path d="M51.0081 28.4002C49.2705 28.4002 47.681 27.9903 46.2394 27.1682C44.7979 26.3461 43.6615 25.2279 42.828 23.8114C41.9968 22.3927 41.5801 20.8396 41.5801 19.1475C41.5801 17.4555 41.9968 15.9024 42.8303 14.4859C43.6638 13.0694 44.807 11.9558 46.2599 11.1474C47.7106 10.339 49.307 9.93359 51.0445 9.93359C52.7821 9.93359 54.3785 10.3435 55.8314 11.1656C57.2843 11.9877 58.4321 13.1013 59.277 14.5041C60.1218 15.9092 60.5454 17.4578 60.5454 19.1475C60.5454 20.8373 60.1218 22.3927 59.277 23.8092C58.4321 25.2257 57.2775 26.3461 55.8132 27.1659C54.3489 27.988 52.7479 28.3979 51.0104 28.3979L51.0081 28.4002ZM54.3125 22.6136C55.1801 21.7095 55.6151 20.5663 55.6151 19.184C55.6151 17.8017 55.1801 16.6471 54.3125 15.7202C53.4425 14.7911 52.354 14.3265 51.0445 14.3265C49.7351 14.3265 48.6147 14.7842 47.7584 15.702C46.9021 16.6197 46.4717 17.7789 46.4717 19.184C46.4717 20.5891 46.8998 21.7072 47.7584 22.6136C48.6147 23.5177 49.71 23.9709 51.0445 23.9709C52.379 23.9709 53.4425 23.52 54.3125 22.6136Z" fill="#333333"/>
<path d="M64.4043 10.3262H80.2976V28.0048H75.4765V14.398H69.1912V28.0048H64.4043V10.3262Z" fill="#333333"/>
<path d="M85.2949 10.3262H101.188V28.0048H96.3671V14.398H90.0818V28.0048H85.2949V10.3262Z" fill="#333333"/>
<path d="M116.189 10.3262H129.191V14.398H120.976V28.0048H116.189V10.3262Z" fill="#333333"/>
<path d="M132.367 10.3262H148.26V28.0048H143.439V14.398H137.154V28.0048H132.367V10.3262Z" fill="#333333"/>
<path d="M46.868 36.0306V38.0574H45.513V37.1738H42.9351V38.0574H41.5801V36.0306H42.2018C42.3566 35.5637 42.4341 35.0764 42.4341 34.5184V32.125H46.2622V36.0306H46.8702H46.868ZM43.5704 36.0306H44.9049V33.3547H43.7891V34.5344C43.7891 35.0855 43.7185 35.5728 43.5704 36.0306Z" fill="#333333"/>
<path d="M52.9845 34.5974C52.9845 36.1505 51.8185 37.1753 50.3497 37.1753C48.8808 37.1753 47.7148 36.1505 47.7148 34.5974C47.7148 33.0443 48.8808 32.0195 50.3497 32.0195C51.8185 32.0195 52.9845 33.0443 52.9845 34.5974ZM49.129 34.5974C49.129 35.3672 49.6505 35.834 50.3497 35.834C51.0488 35.834 51.5703 35.3672 51.5703 34.5974C51.5703 33.8277 51.0488 33.3609 50.3497 33.3609C49.6505 33.3609 49.129 33.8277 49.129 34.5974Z" fill="#333333"/>
<path d="M58.7686 32.127V37.0687H57.4272V35.1489H55.7398V37.0687H54.3984V32.127H55.7398V33.9215H57.4272V32.127H58.7686Z" fill="#333333"/>
<path d="M63.7171 35.8412V37.0687H60.4629V32.127H63.6124V33.3567H61.8042V33.942H63.3938V35.1079H61.8042V35.8412H63.7171Z" fill="#333333"/>
<path d="M70.2262 35.9252V38.0727H68.9555V37.0706H65.2344V32.1289H66.5757V35.9274H68.2427V32.1289H69.584V35.9274H70.2262V35.9252Z" fill="#333333"/>
<path d="M74.7816 37.0687L72.9097 34.78V37.0687H71.5684V32.127H72.9097V34.3018L74.5767 32.127H76.3143L74.3717 34.4794L76.6445 37.071H74.7794L74.7816 37.0687Z" fill="#333333"/>
<path d="M82.3712 34.5974C82.3712 36.1505 81.2053 37.1753 79.7364 37.1753C78.2675 37.1753 77.1016 36.1505 77.1016 34.5974C77.1016 33.0443 78.2675 32.0195 79.7364 32.0195C81.2053 32.0195 82.3712 33.0443 82.3712 34.5974ZM78.518 34.5974C78.518 35.3672 79.0395 35.834 79.7387 35.834C80.4378 35.834 80.9593 35.3672 80.9593 34.5974C80.9593 33.8277 80.4378 33.3609 79.7387 33.3609C79.0395 33.3609 78.518 33.8277 78.518 34.5974Z" fill="#333333"/>
<path d="M87.0394 35.8411V37.0686H83.7852V32.1268H86.9347V33.3566H85.1265V33.9418H86.716V35.1078H85.1265V35.8411H87.0394Z" fill="#333333"/>
<path d="M90.8867 34.5974C90.8867 32.9601 92.0732 32.0195 93.6058 32.0195C94.3892 32.0195 94.9972 32.2586 95.4345 32.5638L94.7285 33.7138C94.3892 33.4816 94.0795 33.3404 93.6491 33.3404C92.9226 33.3404 92.3009 33.7776 92.3009 34.5974C92.3009 35.4173 92.9226 35.8545 93.6491 35.8545C94.0795 35.8545 94.3892 35.7133 94.7285 35.481L95.4345 36.6311C94.9972 36.9339 94.3892 37.1753 93.6058 37.1753C92.0732 37.1753 90.8867 36.2371 90.8867 34.5974Z" fill="#333333"/>
<path d="M101.551 34.5974C101.551 36.1505 100.385 37.1753 98.9161 37.1753C97.4472 37.1753 96.2812 36.1505 96.2812 34.5974C96.2812 33.0443 97.4472 32.0195 98.9161 32.0195C100.385 32.0195 101.551 33.0443 101.551 34.5974ZM97.6955 34.5974C97.6955 35.3672 98.217 35.834 98.9161 35.834C99.6152 35.834 100.137 35.3672 100.137 34.5974C100.137 33.8277 99.6152 33.3609 98.9161 33.3609C98.217 33.3609 97.6955 33.8277 97.6955 34.5974Z" fill="#333333"/>
<path d="M107.947 34.5974C107.947 36.1505 106.781 37.1753 105.313 37.1753C103.844 37.1753 102.678 36.1505 102.678 34.5974C102.678 33.0443 103.844 32.0195 105.313 32.0195C106.781 32.0195 107.947 33.0443 107.947 34.5974ZM104.092 34.5974C104.092 35.3672 104.613 35.834 105.313 35.834C106.012 35.834 106.533 35.3672 106.533 34.5974C106.533 33.8277 106.012 33.3609 105.313 33.3609C104.613 33.3609 104.092 33.8277 104.092 34.5974Z" fill="#333333"/>
<path d="M113.293 35.4016C113.293 36.6017 112.473 37.0686 111.427 37.0686H109.36V32.1268H113.017V33.27H110.701V33.73H111.427C112.473 33.73 113.293 34.1969 113.293 35.4039V35.4016ZM111.91 35.4016C111.91 35.0122 111.648 34.871 111.332 34.871H110.703V35.9231H111.332C111.651 35.9231 111.91 35.7819 111.91 35.4016Z" fill="#333333"/>
<path d="M122.119 35.9254V38.0569H120.848V37.0686H114.74V32.1268H116.082V35.9254H117.437V32.1268H118.778V35.9254H120.133V32.1268H121.474V35.9254H122.116H122.119Z" fill="#333333"/>
<path d="M126.715 35.8412V37.0687H123.461V32.127H126.61V33.3567H124.802V33.942H126.392V35.1079H124.802V35.8412H126.715Z" fill="#333333"/>
<path d="M127.881 34.5974C127.881 32.9601 129.068 32.0195 130.6 32.0195C131.384 32.0195 131.992 32.2586 132.429 32.5638L131.723 33.7138C131.384 33.4816 131.074 33.3404 130.643 33.3404C129.917 33.3404 129.295 33.7776 129.295 34.5974C129.295 35.4173 129.917 35.8545 130.643 35.8545C131.074 35.8545 131.384 35.7133 131.723 35.481L132.429 36.6311C131.992 36.9339 131.384 37.1753 130.6 37.1753C129.068 37.1753 127.881 36.2371 127.881 34.5974Z" fill="#333333"/>
<path d="M137.23 33.3547H135.994V37.069H134.653V33.3547H133.416V32.125H137.228V33.3547H137.23Z" fill="#333333"/>
<path d="M142.534 35.6636C142.534 36.702 141.737 37.0687 140.756 37.0687H138.574V32.127H140.749C141.68 32.127 142.339 32.4663 142.339 33.3635C142.339 33.9488 142.029 34.2813 141.512 34.4589V34.4726C142.043 34.5637 142.537 34.8529 142.537 35.6659L142.534 35.6636ZM139.916 33.236V34.0832H140.524C140.833 34.0832 141.054 33.9488 141.054 33.6459C141.054 33.343 140.836 33.236 140.524 33.236H139.916ZM141.173 35.4814C141.173 35.1353 140.94 35.0146 140.537 35.0146H139.916V35.9596H140.537C140.94 35.9596 141.173 35.8253 141.173 35.4791V35.4814Z" fill="#333333"/>
<path d="M149.002 34.5974C149.002 36.1505 147.836 37.1753 146.367 37.1753C144.898 37.1753 143.732 36.1505 143.732 34.5974C143.732 33.0443 144.898 32.0195 146.367 32.0195C147.836 32.0195 149.002 33.0443 149.002 34.5974ZM145.147 34.5974C145.147 35.3672 145.668 35.834 146.367 35.834C147.066 35.834 147.588 35.3672 147.588 34.5974C147.588 33.8277 147.066 33.3609 146.367 33.3609C145.668 33.3609 145.147 33.8277 145.147 34.5974Z" fill="#333333"/>
</svg>
